<svg version="1.1" viewBox="0.0 0.0 32.0 32.0" fill="none" stroke="none" stroke-linecap="square" stroke-miterlimit="10" xmlns:xlink="http://www.w3.org/1999/xlink" xmlns="http://www.w3.org/2000/svg"><clipPath id="p.0"><path d="m0 0l32.0 0l0 32.0l-32.0 0l0 -32.0z" clip-rule="nonzero"/></clipPath><g clip-path="url(#p.0)"><path fill="#000000" fill-opacity="0.0" d="m0 0l32.0 0l0 32.0l-32.0 0z" fill-rule="evenodd"/><path fill="#000000" d="m16.014263 0l-1.6985922 2.9289289l-2.5997715 -2.5649977l-0.90118027 3.3449292l-2.9982934 -1.7157022l-0.034773827 3.2755651l-3.154316 -0.83200073l0.88406944 3.310339l-3.4663622 0.01729536l1.7850661 3.1544995l-3.240975 0.86640644l2.3743844 2.4437494l-2.9635189 1.6812954l2.9289289 1.715703l-2.5649977 2.5477028l3.3795192 0.93595314l-1.7329972 2.9464092l3.3101554 0.051883698l-0.84911156 3.1197262l3.3449287 -0.8665905l-0.017294884 3.448883l3.1889062 -1.8023605l0.8665905 3.310339l2.4437485 -2.4612274l1.733181 2.9637032l1.6984081 -2.9289284l2.5997715 2.5997715l0.90118027 -3.3797035l2.998293 1.6984062l0 -3.2755642l3.2063847 0.8665905l-0.88388634 -3.3449287l3.5009537 0.01729393l-1.8717251 -3.1716099l3.29286 -0.9013653l-2.35709 -2.3916798l2.8943367 -1.6811123l-2.9116325 -1.7158861l2.5477028 -2.5649977l-3.3795185 -0.90118027l1.7504749 -3.0157719l-3.310339 0l0.88388634 -3.154316l-3.3624077 0.90118074l-0.034589767 -3.4488833l-3.154316 1.7850661l-0.8665905 -3.2755651l-2.4610443 2.3916795z" fill-rule="evenodd"/><path fill="#000000" fill-opacity="0.0" d="m16.0 11.427821l0 8.112252" fill-rule="evenodd"/><path stroke="#ffffff" stroke-width="1.0" stroke-linejoin="round" stroke-linecap="butt" d="m16.0 11.427821l0 8.112252" fill-rule="evenodd"/><path fill="#000000" fill-opacity="0.0" d="m24.005249 9.304457l0 10.545927" fill-rule="evenodd"/><path stroke="#ffffff" stroke-width="1.0" stroke-linejoin="round" stroke-linecap="butt" d="m24.005249 9.304457l0 10.545927" fill-rule="evenodd"/><path fill="#000000" fill-opacity="0.0" d="m8.005249 9.304457l0 10.545927" fill-rule="evenodd"/><path stroke="#ffffff" stroke-width="1.0" stroke-linejoin="round" stroke-linecap="butt" d="m8.005249 9.304457l0 10.545927" fill-rule="evenodd"/><path fill="#000000" fill-opacity="0.0" d="m7.538058 9.739821l16.913385 0" fill-rule="evenodd"/><path stroke="#ffffff" stroke-width="1.0" stroke-linejoin="round" stroke-linecap="butt" d="m7.538058 9.739821l16.913385 0" fill-rule="evenodd"/><path fill="#000000" d="m7.952756 9.3044615l16.09449 0l0 11.307088l-16.09449 0z" fill-rule="evenodd"/><path stroke="#ffffff" stroke-width="1.0" stroke-linejoin="round" stroke-linecap="butt" d="m7.952756 9.3044615l16.09449 0l0 11.307088l-16.09449 0z" fill-rule="evenodd"/><path fill="#000000" d="m7.0971127 19.270224l17.795277 0l0 2.3307076l-17.795277 0z" fill-rule="evenodd"/><path fill="#ffffff" d="m16.007439 17.165829l-0.34892654 0.6016617l-0.5340471 -0.52690315l-0.18512154 0.68711853l-0.6159115 -0.3524418l-0.0071439743 0.67287064l-0.6479616 -0.17091179l0.1816063 0.68001366l-0.71206284 0.0035533905l0.36668968 0.6479988l-0.66576385 0.17797852l0.48774815 0.501997l-0.60876846 0.34537315l0.60166264 0.35243988l-0.5269041 0.52335167l0.6942234 0.19226456l-0.35599327 0.6052532l0.67997456 0.010658264l-0.17442513 0.6408577l0.68711853 -0.17801666l-0.0035533905 0.7084732l0.6550684 -0.37024307l0.17801571 0.68001366l0.501997 -0.50558853l0.35603046 0.6088066l0.3488884 -0.6016636l0.5340481 0.5340481l0.18512154 -0.69426155l0.6159115 0.3488884l0 -0.6728687l0.6586571 0.17801476l-0.18156815 -0.68711853l0.7191696 0.0035533905l-0.38449287 -0.65151596l0.6764221 -0.18515778l-0.4841938 -0.49130058l0.5945568 -0.3453369l-0.5981102 -0.35247803l0.52335167 -0.52690315l-0.6942234 -0.18512154l0.3595829 -0.619503l-0.68001175 0l0.18156815 -0.64796257l-0.69070816 0.18512154l-0.007106781 -0.7084713l-0.64796066 0.36668968l-0.17801666 -0.67287064l-0.5055485 0.49130058z" fill-rule="evenodd"/><path fill="#ffffff" d="m24.007439 17.165829l-0.34892654 0.6016617l-0.5340481 -0.52690315l-0.18511963 0.68711853l-0.6159134 -0.3524418l-0.0071430206 0.67287064l-0.64796257 -0.17091179l0.1816063 0.68001366l-0.71206284 0.0035533905l0.36668968 0.6479988l-0.66576385 0.17797852l0.4877491 0.501997l-0.60876846 0.34537315l0.6016636 0.35243988l-0.52690506 0.52335167l0.6942234 0.19226456l-0.35599327 0.6052532l0.6799755 0.010658264l-0.17442513 0.6408577l0.6871166 -0.17801666l-0.0035514832 0.7084732l0.65506744 -0.37024307l0.17801476 0.68001366l0.501997 -0.50558853l0.35603142 0.6088066l0.3488884 -0.6016636l0.5340481 0.5340481l0.18512154 -0.69426155l0.6159115 0.3488884l0 -0.6728687l0.6586571 0.17801476l-0.18156815 -0.68711853l0.7191696 0.0035533905l-0.38449287 -0.65151596l0.6764221 -0.18515778l-0.4841938 -0.49130058l0.5945568 -0.3453369l-0.5981102 -0.35247803l0.52335167 -0.52690315l-0.6942234 -0.18512154l0.3595829 -0.619503l-0.68001175 0l0.18156815 -0.64796257l-0.69070816 0.18512154l-0.007106781 -0.7084713l-0.64796066 0.36668968l-0.17801666 -0.67287064l-0.5055485 0.49130058z" fill-rule="evenodd"/><path fill="#ffffff" d="m8.007438 17.165829l-0.3489256 0.6016617l-0.5340471 -0.52690315l-0.18512154 0.68711853l-0.6159115 -0.3524418l-0.0071434975 0.67287064l-0.6479621 -0.17091179l0.1816063 0.68001366l-0.7120633 0.0035533905l0.36669016 0.6479988l-0.66576385 0.17797852l0.48774767 0.501997l-0.60876846 0.34537315l0.6016631 0.35243988l-0.5269036 0.52335167l0.6942234 0.19226456l-0.35599375 0.6052532l0.67997503 0.010658264l-0.1744256 0.6408577l0.68711853 -0.17801666l-0.0035529137 0.7084732l0.65506744 -0.37024307l0.17801619 0.68001366l0.5019965 -0.50558853l0.3560319 0.6088066l0.34888744 -0.6016636l0.5340481 0.5340481l0.18512058 -0.69426155l0.61591244 0.3488884l0 -0.6728687l0.658658 0.17801476l-0.18156815 -0.68711853l0.7191677 0.0035533905l-0.38449097 -0.65151596l0.6764221 -0.18515778l-0.4841957 -0.49130058l0.59455776 -0.3453369l-0.5981102 -0.35247803l0.52335167 -0.52690315l-0.69422436 -0.18512154l0.3595848 -0.619503l-0.6800127 0l0.18156815 -0.64796257l-0.69070816 0.18512154l-0.0071058273 -0.7084713l-0.64796257 0.36668968l-0.17801571 -0.67287064l-0.50554943 0.49130058z" fill-rule="evenodd"/><path fill="#ffffff" d="m14.286517 6.38379l-0.0043678284 0.23301029l-0.21984005 -0.10990286l0.02637577 0.28135967l-0.25938606 -0.10113382l0.057151794 0.28135967l-0.2769575 -0.074724674l0.083527565 0.25938606l-0.28135967 -0.052750587l0.09669781 0.26378727l-0.2725563 -0.030776978l0.1187067 0.25498438l-0.28135967 0l0.15825176 0.26378727l-0.26818943 0.021974087l0.14948368 0.2242074l-0.25938606 0.043981552l0.1802597 0.21100235l-0.26378727 0.07035732l0.18466091 0.18466091l-0.24181366 0.0922966l0.20663548 0.1758585l-0.24181366 0.11430454l0.22424126 0.1582861l-0.24621487 0.13187695l0.22860909 0.14067936l-0.25938606 0.1758585l0.2549839 0.11430454l-0.21540356 0.17585754l0.26378727 0.1011343l-0.19786644 0.1934309l0.26378727 0.07032204l-0.16705513 0.19346523l0.26378727 0.057151794l-0.15388393 0.22420788l0.27699184 0.030776024l-0.14067936 0.23301125l0.24618053 -0.0044021606l-0.10990238 0.20663548l0.28135967 -0.022007942l-0.10109997 0.25061703l0.2725563 -0.039580345l-0.07912636 0.27699184l0.28135967 -0.07915974l-0.052750587 0.26818943l0.2505827 -0.09233093l-0.026374817 0.27259064l0.2505827 -0.11430454l0 0.2769575l0.28576088 -0.15825176l0.030776978 0.2681551l0.21103668 -0.14948273l0.043981552 0.25061607l0.21100235 -0.17585754l0.065956116 0.26818848l0.19783115 -0.19346428l0.1011343 0.26818848l0.16265392 -0.20663452l0.11430359 0.24181366l0.15825272 -0.21984005l0.12310696 0.23301029l0.14508152 -0.2505827l0.19342995 0.26818943l0.11870766 -0.23741245l0.16705513 0.21103668l0.092329025 -0.25938606l0.19783211 0.18462753l0.065956116 -0.2725563l0.22420692 0.19783211l0.0395813 -0.28576088l0.22860718 0.17145634l0.021974564 -0.28576088l0.2374115 0.14067936l-0.0044002533 -0.24181366l0.22420692 0.11430454l-0.030776978 -0.28135967l0.25938606 0.09673214l-0.05275154 -0.27699184l0.26378822 0.07475853l-0.061553955 -0.25501823l0.2769928 0.04838276l-0.09673309 -0.26378727l0.26818848 0.017572403l-0.11430359 -0.24177933l0.2725563 0l-0.15388489 -0.26378727l0.26378822 -0.030776978l-0.14508247 -0.20663548l0.25061798 -0.057151794l-0.16268921 -0.20663548l0.26378822 -0.0747242l-0.1890297 -0.18466187l0.25058365 -0.10109997l-0.21103668 -0.16705513l0.24181366 -0.12310696l-0.22420692 -0.14508152l0.23300934 -0.14508152l-0.21543884 -0.12310791l0.24621582 -0.18022537l-0.24621582 -0.11870575l0.20223427 -0.1758585l-0.2549839 -0.09673214l0.19783211 -0.19783211l-0.25938606 -0.06595516l0.16265297 -0.20663548l-0.26815414 -0.052750587l0.14948273 -0.21540451l-0.26818848 -0.026375294l0.14508057 -0.25061655l-0.24621391 0.008802891l0.08352661 -0.206635l-0.25938606 0.022007942l0.09233093 -0.26378775l-0.26378822 0.052751064l0.07475853 -0.27259064l-0.2769909 0.07475853l0.043981552 -0.26818895l-0.25058365 0.092330456l0.021974564 -0.26818895l-0.2374115 0.11430454l-0.0044021606 -0.28135967l-0.28576088 0.16705513l-0.021974564 -0.26378727l-0.22420692 0.15388441l-0.03957939 -0.26378727l-0.20663643 0.16705513l-0.065919876 -0.2681551l-0.20663643 0.20660114l-0.096731186 -0.2637534l-0.17145729 0.20660114l-0.105501175 -0.23297644l-0.15388489 0.21100283l-0.13627815 -0.22860909l-0.13627815 0.24181366l-0.19346428 -0.27259064l-0.11430454 0.24181366l-0.17145729 -0.19783163l-0.09232998 0.2505827l-0.1934309 -0.18902922l-0.07032299 0.2681551l-0.22424126 -0.18462753l-0.039546013 0.276958l-0.21984005 -0.15825176l-0.02197361 0.2725563z" fill-rule="evenodd"/><path fill="#000000" fill-opacity="0.0" d="m16.0 9.3044615l0 9.952756" fill-rule="evenodd"/><path stroke="#ffffff" stroke-width="1.0" stroke-linejoin="round" stroke-linecap="butt" d="m16.0 9.3044615l0 9.952756" fill-rule="evenodd"/></g></svg>
