<svg version="1.1" viewBox="0.0 0.0 31.748031496062993 31.748031496062993" fill="none" stroke="none" stroke-linecap="square" stroke-miterlimit="10" xmlns:xlink="http://www.w3.org/1999/xlink" xmlns="http://www.w3.org/2000/svg"><clipPath id="p.0"><path d="m0 0l31.748032 0l0 31.748032l-31.748032 0l0 -31.748032z" clip-rule="nonzero"/></clipPath><g clip-path="url(#p.0)"><path fill="#000000" fill-opacity="0.0" d="m0 0l31.748032 0l0 31.748032l-31.748032 0z" fill-rule="evenodd"/><path fill="#000000" d="m15.8771925 0l-1.6840525 2.9038596l-2.5775194 -2.5430434l-0.89346695 3.3162992l-2.97263 -1.701017l-0.03447628 3.2475286l-3.127318 -0.82487917l0.876503 3.2820053l-3.4366932 0.017147064l1.7697875 3.1275l-3.213235 0.85899067l2.3540616 2.4228325l-2.9381535 1.6669054l2.9038596 1.7010164l-2.5430434 2.525896l3.350593 0.9279442l-1.718164 2.9211884l3.281823 0.051441193l-0.8418441 3.0930233l3.3162994 -0.8591728l-0.017147064 3.419363l3.161612 -1.7869339l0.8591728 3.2820053l2.4228315 -2.4401608l1.7183466 2.9383354l1.6838713 -2.90386l2.5775185 2.5775204l0.89346695 -3.3507748l2.9726315 1.6838684l0 -3.247528l3.1789398 0.8591728l-0.8763199 -3.3162994l3.4709873 0.017147064l-1.8557053 -3.1444645l3.2646751 -0.89365005l-2.336914 -2.3712082l2.869566 -1.6667223l-2.886713 -1.7011995l2.525896 -2.543044l-3.3505936 -0.89346695l1.7354946 -2.9899592l-3.2820053 0l0.8763199 -3.1273174l-3.3336277 0.89346695l-0.03429413 -3.4193633l-3.1273174 1.7697873l-0.8591747 -3.2475288l-2.4399776 2.3712087z" fill-rule="evenodd"/><path fill="#000000" fill-opacity="0.0" d="m6.2713614 21.729326l19.204659 -11.066666" fill-rule="evenodd"/><path stroke="#ffffff" stroke-width="1.0" stroke-linejoin="round" stroke-linecap="butt" d="m6.2713614 21.729326l19.204659 -11.066666" fill-rule="evenodd"/><path fill="#000000" fill-opacity="0.0" d="m25.510498 21.778166l-19.273617 -11.135615" fill-rule="evenodd"/><path stroke="#ffffff" stroke-width="1.0" stroke-linejoin="round" stroke-linecap="butt" d="m25.510498 21.778166l-19.273617 -11.135615" fill-rule="evenodd"/><path fill="#000000" fill-opacity="0.0" d="m26.975845 16.305166l-22.20431 0" fill-rule="evenodd"/><path stroke="#ffffff" stroke-width="1.0" stroke-linejoin="round" stroke-linecap="butt" d="m26.975845 16.305166l-22.20431 0" fill-rule="evenodd"/><path fill="#000000" fill-opacity="0.0" d="m15.896374 16.305166l-5.6545143 -9.791068" fill-rule="evenodd"/><path stroke="#ffffff" stroke-width="1.0" stroke-linejoin="round" stroke-linecap="butt" d="m15.896374 16.305166l-5.6545143 -9.791068" fill-rule="evenodd"/><path fill="#000000" fill-opacity="0.0" d="m15.851007 16.305166l5.6545124 -9.791068" fill-rule="evenodd"/><path stroke="#ffffff" stroke-width="1.0" stroke-linejoin="round" stroke-linecap="butt" d="m15.851007 16.305166l5.6545124 -9.791068" fill-rule="evenodd"/><path fill="#000000" fill-opacity="0.0" d="m15.896374 16.305166l-2.2066402 8.239666" fill-rule="evenodd"/><path stroke="#ffffff" stroke-width="1.0" stroke-linejoin="round" stroke-linecap="butt" d="m15.896374 16.305166l-2.2066402 8.239666" fill-rule="evenodd"/><path fill="#000000" fill-opacity="0.0" d="m15.896374 16.305166l2.137682 8.205191" fill-rule="evenodd"/><path stroke="#ffffff" stroke-width="1.0" stroke-linejoin="round" stroke-linecap="butt" d="m15.896374 16.305166l2.137682 8.205191" fill-rule="evenodd"/><path fill="#ffffff" d="m15.877034 10.149601l-0.6498785 1.1205006l-0.994668 -0.9812746l-0.34479046 1.2796478l-1.1471424 -0.65636444l-0.01330471 1.2531118l-1.2068357 -0.31829357l0.33824348 1.2664146l-1.3262253 0.0066165924l0.6829643 1.2067966l-1.2399921 0.33145523l0.9084358 0.93488884l-1.1338377 0.6432028l1.1206036 0.65636444l-0.98136425 0.97465897l1.2929983 0.35806084l-0.66304207 1.1271896l1.2664604 0.01984787l-0.3248682 1.1934948l1.2797642 -0.3315258l-0.0066165924 1.319416l1.2200699 -0.689518l0.33155632 1.2664146l0.9349747 -0.941576l0.6631117 1.1338043l0.64980793 -1.1205006l0.99466896 0.9945774l0.3447895 -1.2929497l1.1471424 0.64974785l0 -1.2531109l1.226759 0.3315258l-0.3381729 -1.2796478l1.3394585 0.0066165924l-0.71611977 -1.2133427l1.2598438 -0.34482956l-0.9018192 -0.9149704l1.1073685 -0.64313126l-1.1139851 -0.656435l0.9747467 -0.9812746l-1.2929993 -0.344759l0.66972923 -1.1537237l-1.266531 0l0.33817482 -1.206727l-1.2864532 0.344759l-0.013233185 -1.319416l-1.2068367 0.6829004l-0.33155632 -1.2531109l-0.94159126 0.9149685z" fill-rule="evenodd"/></g></svg>
