<svg version="1.1" viewBox="0.0 0.0 32.0 32.0" fill="none" stroke="none" stroke-linecap="square" stroke-miterlimit="10" xmlns:xlink="http://www.w3.org/1999/xlink" xmlns="http://www.w3.org/2000/svg"><clipPath id="p.0"><path d="m0 0l32.0 0l0 32.0l-32.0 0l0 -32.0z" clip-rule="nonzero"/></clipPath><g clip-path="url(#p.0)"><path fill="#000000" fill-opacity="0.0" d="m0 0l32.0 0l0 32.0l-32.0 0z" fill-rule="evenodd"/><path fill="#000000" d="m16.014263 0l-1.6985922 2.9289289l-2.5997715 -2.5649977l-0.90118027 3.3449292l-2.9982934 -1.7157022l-0.034773827 3.2755651l-3.154316 -0.83200073l0.88406944 3.310339l-3.4663622 0.01729536l1.7850661 3.1544995l-3.240975 0.86640644l2.3743844 2.4437494l-2.9635189 1.6812954l2.9289289 1.715703l-2.5649977 2.5477028l3.3795192 0.93595314l-1.7329972 2.9464092l3.3101554 0.051883698l-0.84911156 3.1197262l3.3449287 -0.8665905l-0.017294884 3.448883l3.1889062 -1.8023605l0.8665905 3.310339l2.4437485 -2.4612274l1.733181 2.9637032l1.6984081 -2.9289284l2.5997715 2.5997715l0.90118027 -3.3797035l2.998293 1.6984062l0 -3.2755642l3.2063847 0.8665905l-0.88388634 -3.3449287l3.5009537 0.01729393l-1.8717251 -3.1716099l3.29286 -0.9013653l-2.35709 -2.3916798l2.8943367 -1.6811123l-2.9116325 -1.7158861l2.5477028 -2.5649977l-3.3795185 -0.90118027l1.7504749 -3.0157719l-3.310339 0l0.88388634 -3.154316l-3.3624077 0.90118074l-0.034589767 -3.4488833l-3.154316 1.7850661l-0.8665905 -3.2755651l-2.4610443 2.3916795z" fill-rule="evenodd"/><path fill="#ffffff" d="m12.301779 13.555441l1.286027 0.7754164l0.46474075 -1.5523787l1.0643864 1.1074753l0.80105114 -1.3074446l0.7123413 1.2656364l1.050312 -0.99732494l0.3621025 1.4754753l1.3529625 -0.7339153l-0.0218544 1.6074181l1.4463806 -0.35574627l-0.4028759 1.457097l1.512228 0.020248413l-0.77405167 1.2926235l1.5419426 0.44213104l-1.1157932 1.085844l1.3031483 0.7748585l-1.277401 0.7274265l0.9960747 1.0310745l-1.4868832 0.37788582l0.74251366 1.3367329l-1.6257877 -0.019144058l0.36890602 1.4717407l-1.4762974 -0.43442726l-0.04236412 1.5221767l-1.2859554 -0.7754555l-0.45732117 1.5658932l-1.071806 -1.1209888l-0.8047409 1.3007221l-0.6988058 -1.2730675l-1.0632 1.0218945l-0.36955357 -1.4888783l-1.3590469 0.7547493l0.051935196 -1.6325855l-1.4740334 0.3532467l0.4072523 -1.4331646l-1.485261 -0.034957886l0.7672806 -1.2889996l-1.5389013 -0.45254898l1.1232119 -1.0723305l-1.32475 -0.79808235l1.2885408 -0.7073002l-1.0169888 -1.0370884l1.5010662 -0.3681755l-0.7223177 -1.3478184l1.608634 0.01981163l-0.36148834 -1.4582262l1.468194 0.40370274z" fill-rule="evenodd"/><path fill="#ffffff" d="m18.791218 7.154866l0.53928566 0.32449198l0.19556999 -0.6507635l0.4461689 0.46373796l0.33658218 -0.54823923l0.2984028 0.5301533l0.44104767 -0.4183631l0.15137672 0.61822605l0.5679321 -0.30808306l-0.009767532 0.6736655l0.6069851 -0.14963007l-0.16957664 0.61080885l0.6344738 0.007922173l-0.32524872 0.542017l0.6467838 0.18471909l-0.46855545 0.4554863l0.54647064 0.32425117l-0.5362263 0.305336l0.41753578 0.43174362l-0.6239891 0.1589241l0.31103706 0.5599375l-0.6821213 -0.007416725l0.15423203 0.6166582l-0.6192436 -0.18151474l-0.018342972 0.637949l-0.53925514 -0.32450867l-0.19246101 0.6564255l-0.44927597 -0.46939945l-0.33812904 0.5454235l-0.2927208 -0.53327274l-0.44646454 0.42866516l-0.15449715 -0.62384033l-0.5704937 0.31681633l0.022399902 -0.6842232l-0.6185894 0.148592l0.17140579 -0.60078144l-0.6231537 -0.01409626l0.32240486 -0.5404968l-0.645504 -0.189085l0.47166443 -0.4498253l-0.5555248 -0.33397675l0.54089355 -0.29690456l-0.4263096 -0.43425655l0.6299362 -0.15485954l-0.3025589 -0.5645914l0.67492294 0.0077028275l-0.15112495 -0.6109967l0.6158562 0.16864157z" fill-rule="evenodd"/><path fill="#ffffff" d="m13.092599 7.7785115l0.39785194 0.23966551l0.14399815 -0.48018026l0.3292265 0.34239244l0.24803638 -0.40446806l0.22027111 0.39135218l0.3251295 -0.30858374l0.111867905 0.45629454l0.4187479 -0.22715282l-0.0069589615 0.49714947l0.44760895 -0.11020374l-0.1248436 0.45070457l0.46793938 0.0060768127l-0.23967934 0.39988136l0.4770813 0.13655472l-0.34540176 0.33596992l0.40315056 0.23949051l-0.39536667 0.22513676l0.30809784 0.31877136l-0.46014595 0.11705589l0.229599 0.4133377l-0.5030794 -0.005722046l0.11397457 0.45513916l-0.4567709 -0.13418102l-0.013295174 0.47078896l-0.39782906 -0.23967838l-0.14170456 0.48435974l-0.33152103 -0.34657097l-0.24917698 0.40238953l-0.21608162 -0.39365196l-0.32911968 0.31618404l-0.11417198 -0.46043968l-0.42063427 0.23359776l0.016270638 -0.5049372l-0.45616627 0.109433174l0.12619495 -0.44330215l-0.45959282 -0.010630608l0.23758411 -0.3987589l-0.47614002 -0.13977718l0.34769726 -0.33179092l-0.409832 -0.24667072l0.39881134 -0.21891308l-0.31456852 -0.32062912l0.46453285 -0.11405468l-0.22334862 -0.41676807l0.49777126 0.005929947l-0.11168003 -0.4509592l0.45426655 0.12467861z" fill-rule="evenodd"/><path fill="#ffffff" d="m8.567131 9.981075l0.37142754 0.2237091l0.13447285 -0.44827557l0.30735016 0.31961346l0.23160076 -0.37760258l0.20562267 0.36532593l0.30356884 -0.28809643l0.104411125 0.4259596l0.39096928 -0.21208382l-0.0065317154 0.46410656l0.4179058 -0.10290909l-0.11658764 0.42075634l0.4368782 0.0056409836l-0.2237978 0.37331963l0.44540596 0.12744617l-0.32249928 0.31366348l0.3763733 0.22354507l-0.36913776 0.21020031l0.28762436 0.29756355l-0.42961025 0.10930729l0.21433067 0.385849l-0.4696865 -0.005306244l0.1063776 0.42488003l-0.42644215 -0.12523079l-0.01244545 0.4394989l-0.3714056 -0.22372055l-0.1323328 0.45217705l-0.30949116 -0.32351494l-0.23266506 0.3756628l-0.20171165 -0.3674736l-0.3072958 0.29519176l-0.10656166 -0.42982864l-0.39272976 0.21810055l0.01522541 -0.47137737l-0.42589474 0.102191925l0.11784935 -0.41384792l-0.42908573 -0.00989151l0.22184134 -0.3722725l-0.44452572 -0.13045406l0.32464027 -0.309762l-0.3826108 -0.23024845l0.37235403 -0.20439053l-0.29366636 -0.29929733l0.43370628 -0.106505394l-0.20849419 -0.3890524l0.46473026 0.005501747l-0.10423565 -0.4209795l0.4241047 0.116360664z" fill-rule="evenodd"/><path fill="#ffffff" d="m6.0987334 14.005753l0.3038969 0.18293095l0.11013174 -0.36674023l0.2514429 0.26139832l0.18959713 -0.30894566l0.16819 0.29881477l0.24847174 -0.23573971l0.08535433 0.34843636l0.3199768 -0.1735754l-0.0054388046 0.37966537l0.34199715 -0.08426952l-0.0954895 0.34422493l0.35750103 0.0045261383l-0.18321228 0.30543995l0.36445427 0.10416794l-0.2639675 0.25665855l0.30794525 0.18279552l-0.30211163 0.1720295l0.23530579 0.24336433l-0.3515768 0.08950615l0.17531109 0.31560135l-0.38434792 -0.004245758l0.08696365 0.34755325l-0.34893656 -0.10235977l-0.010272503 0.35953522l-0.3038802 -0.18293953l-0.10838032 0.36993217l-0.25319433 -0.2645893l-0.19046831 0.3073578l-0.16498852 -0.30057144l-0.25152302 0.24154472l-0.08711386 -0.35160065l-0.32141876 0.17849731l0.012554646 -0.3856144l-0.34853458 0.083683014l0.0965209 -0.33857346l-0.35112333 -0.008005142l0.1816101 -0.3045826l-0.3637333 -0.10662842l0.26571894 -0.25346756l-0.3130479 -0.1882782l0.3047428 -0.16727734l-0.24025011 -0.2447815l0.35492802 -0.08721542l-0.17053413 -0.318223l0.38029194 0.004406929l-0.085211754 -0.34436226l0.34702587 0.095103264z" fill-rule="evenodd"/><path fill="#ffffff" d="m5.7660036 18.153048l0.24713278 0.14865303l0.08967018 -0.29820442l0.20444918 0.21246529l0.1542902 -0.25123405l0.13672352 0.24290466l0.20215845 -0.19172859l0.06933594 0.2832718l0.26030207 -0.14120483l-0.0045199394 0.3086853l0.27819014 -0.06860161l-0.07775545 0.27989388l0.29077768 0.0035896301l-0.14909554 0.24838257l0.29640818 0.08460045l-0.21476746 0.20874023l0.25042534 0.1485424l-0.24577093 0.13994408l0.19132805 0.1978054l-0.2859826 0.072862625l0.14251137 0.25655365l-0.31261396 -0.0033550262l0.070644855 0.28255272l-0.28378725 -0.0831337l-0.008446217 0.29232025l-0.24711943 -0.14866066l-0.088246346 0.3007965l-0.20587254 -0.21505737l-0.15499878 0.24994469l-0.13411951 -0.24433708l-0.20464134 0.19645119l-0.07076597 -0.2858448l-0.26147652 0.14520645l0.010309219 -0.31352425l-0.28350735 0.06812668l0.07859278 -0.27529716l-0.28558922 -0.0064201355l0.14779282 -0.24768639l-0.2958212 -0.08659935l0.21619081 -0.20614815l-0.2545743 -0.15299797l0.24790955 -0.1360817l-0.19534874 -0.19895744l0.28870773 -0.070999146l-0.13862562 -0.25868607l0.3093152 0.0034866333l-0.06922102 -0.27995872l0.28223467 0.07723427z" fill-rule="evenodd"/></g></svg>
