<svg version="1.1" viewBox="0.0 0.0 32.0 32.0" fill="none" stroke="none" stroke-linecap="square" stroke-miterlimit="10" xmlns:xlink="http://www.w3.org/1999/xlink" xmlns="http://www.w3.org/2000/svg"><clipPath id="p.0"><path d="m0 0l32.0 0l0 32.0l-32.0 0l0 -32.0z" clip-rule="nonzero"/></clipPath><g clip-path="url(#p.0)"><path fill="#000000" fill-opacity="0.0" d="m0 0l32.0 0l0 32.0l-32.0 0z" fill-rule="evenodd"/><path fill="#000000" d="m16.014263 0l-1.6985922 2.9289289l-2.5997715 -2.5649977l-0.90118027 3.3449292l-2.9982934 -1.7157022l-0.034773827 3.2755651l-3.154316 -0.83200073l0.88406944 3.310339l-3.4663622 0.01729536l1.7850661 3.1544995l-3.240975 0.86640644l2.3743844 2.4437494l-2.9635189 1.6812954l2.9289289 1.715703l-2.5649977 2.5477028l3.3795192 0.93595314l-1.7329972 2.9464092l3.3101554 0.051883698l-0.84911156 3.1197262l3.3449287 -0.8665905l-0.017294884 3.448883l3.1889062 -1.8023605l0.8665905 3.310339l2.4437485 -2.4612274l1.733181 2.9637032l1.6984081 -2.9289284l2.5997715 2.5997715l0.90118027 -3.3797035l2.998293 1.6984062l0 -3.2755642l3.2063847 0.8665905l-0.88388634 -3.3449287l3.5009537 0.01729393l-1.8717251 -3.1716099l3.29286 -0.9013653l-2.35709 -2.3916798l2.8943367 -1.6811123l-2.9116325 -1.7158861l2.5477028 -2.5649977l-3.3795185 -0.90118027l1.7504749 -3.0157719l-3.310339 0l0.88388634 -3.154316l-3.3624077 0.90118074l-0.034589767 -3.4488833l-3.154316 1.7850661l-0.8665905 -3.2755651l-2.4610443 2.3916795z" fill-rule="evenodd"/><path fill="#ffffff" d="m21.079258 22.49523l0.90426445 0c0.124853134 0 0.22606659 0.35417747 0.22606659 0.79107666c0 0.4368992 -0.101213455 0.79107475 -0.22606659 0.79107475l-0.90426445 0l0 0c-0.124853134 0 -0.22606659 -0.35417557 -0.22606659 -0.79107475c0 -0.4368992 0.101213455 -0.79107666 0.22606659 -0.79107666z" fill-rule="evenodd"/><path fill="#000000" fill-opacity="0.0" d="m21.983522 24.077381c-0.124853134 0 -0.22606659 -0.35417557 -0.22606659 -0.79107475c0 -0.4368992 0.101213455 -0.79107666 0.22606659 -0.79107666" fill-rule="evenodd"/><path fill="#000000" fill-opacity="0.0" d="m21.079258 22.49523l0.90426445 0c0.124853134 0 0.22606659 0.35417747 0.22606659 0.79107666c0 0.4368992 -0.101213455 0.79107475 -0.22606659 0.79107475l-0.90426445 0l0 0c-0.124853134 0 -0.22606659 -0.35417557 -0.22606659 -0.79107475c0 -0.4368992 0.101213455 -0.79107666 0.22606659 -0.79107666z" fill-rule="evenodd"/><path fill="#ffffff" d="m22.058584 22.09717l1.3590317 0c0.18764305 0 0.33975792 0.5323944 0.33975792 1.1891365c0 0.6567421 -0.15211487 1.1891365 -0.33975792 1.1891365l-1.3590317 0l0 0c-0.18764305 0 -0.33975792 -0.5323944 -0.33975792 -1.1891365c0 -0.6567421 0.15211487 -1.1891365 0.33975792 -1.1891365z" fill-rule="evenodd"/><path fill="#000000" fill-opacity="0.0" d="m23.417616 24.475443c-0.18764305 0 -0.33975792 -0.5323944 -0.33975792 -1.1891365c0 -0.6567421 0.15211487 -1.1891365 0.33975792 -1.1891365" fill-rule="evenodd"/><path fill="#000000" fill-opacity="0.0" d="m22.058584 22.09717l1.3590317 0c0.18764305 0 0.33975792 0.5323944 0.33975792 1.1891365c0 0.6567421 -0.15211487 1.1891365 -0.33975792 1.1891365l-1.3590317 0l0 0c-0.18764305 0 -0.33975792 -0.5323944 -0.33975792 -1.1891365c0 -0.6567421 0.15211487 -1.1891365 0.33975792 -1.1891365z" fill-rule="evenodd"/><path fill="#ffffff" d="m10.951069 22.49523l-0.9042654 0c-0.124853134 0 -0.22606564 0.35417747 -0.22606564 0.79107666c0 0.4368992 0.1012125 0.79107475 0.22606564 0.79107475l0.9042654 0l0 0c0.124853134 0 0.22606564 -0.35417557 0.22606564 -0.79107475c0 -0.4368992 -0.1012125 -0.79107666 -0.22606564 -0.79107666z" fill-rule="evenodd"/><path fill="#000000" fill-opacity="0.0" d="m10.046803 24.077381c0.124853134 0 0.22606659 -0.35417557 0.22606659 -0.79107475c0 -0.4368992 -0.101213455 -0.79107666 -0.22606659 -0.79107666" fill-rule="evenodd"/><path fill="#000000" fill-opacity="0.0" d="m10.951069 22.49523l-0.9042654 0c-0.124853134 0 -0.22606564 0.35417747 -0.22606564 0.79107666c0 0.4368992 0.1012125 0.79107475 0.22606564 0.79107475l0.9042654 0l0 0c0.124853134 0 0.22606564 -0.35417557 0.22606564 -0.79107475c0 -0.4368992 -0.1012125 -0.79107666 -0.22606564 -0.79107666z" fill-rule="evenodd"/><path fill="#ffffff" d="m9.971741 22.09717l-1.3590307 0c-0.18764305 0 -0.33975792 0.5323944 -0.33975792 1.1891365c0 0.6567421 0.15211487 1.1891365 0.33975792 1.1891365l1.3590307 0l0 0c0.18764305 0 0.33975792 -0.5323944 0.33975792 -1.1891365c0 -0.6567421 -0.15211487 -1.1891365 -0.33975792 -1.1891365z" fill-rule="evenodd"/><path fill="#000000" fill-opacity="0.0" d="m8.61271 24.475443c0.18764305 0 0.33975792 -0.5323944 0.33975792 -1.1891365c0 -0.6567421 -0.15211487 -1.1891365 -0.33975792 -1.1891365" fill-rule="evenodd"/><path fill="#000000" fill-opacity="0.0" d="m9.971741 22.09717l-1.3590307 0c-0.18764305 0 -0.33975792 0.5323944 -0.33975792 1.1891365c0 0.6567421 0.15211487 1.1891365 0.33975792 1.1891365l1.3590307 0l0 0c0.18764305 0 0.33975792 -0.5323944 0.33975792 -1.1891365c0 -0.6567421 -0.15211487 -1.1891365 -0.33975792 -1.1891365z" fill-rule="evenodd"/><path fill="#ffffff" d="m23.535088 5.9329057l-2.6992493 20.019276l-9.651681 0l-2.6992502 -20.019276z" fill-rule="evenodd"/><path fill="#000000" d="m9.302122 6.9478064c0.014405251 0.6134639 0.3703289 2.9093113 0.4328251 3.0394335c0.06249714 0.13012218 -0.10593605 -1.8404465 -0.057844162 -2.2587004c0.04809189 -0.4182539 0.23092937 -0.49715042 0.34639454 -0.25082254c0.11546421 0.24632788 0.21164799 1.6916423 0.34639454 1.7287898c0.1347456 0.03714657 0.33215714 -1.5431099 0.46208286 -1.5059085c0.12992668 0.037200928 0.22128868 1.7012267 0.31747246 1.729114c0.09618378 0.027887344 0.14416313 -1.5339041 0.25962734 -1.561791c0.115465164 -0.027887344 0.28883076 1.5431638 0.43316174 1.3944678c0.14433098 -0.14869595 0.2981348 -2.37496 0.4328251 -2.2866416c0.13469028 0.08831835 0.2550316 2.6678567 0.37531662 2.8165526c0.120285034 0.14869499 0.15397167 -1.775629 0.34639454 -1.9243789c0.19242191 -0.14874983 0.678215 0.9900222 0.8081417 1.0318799c0.12992573 0.04185772 -0.13446617 -0.8643942 -0.028586388 -0.7807331c0.10587978 0.08366203 0.50513077 1.3710213 0.663867 1.2827024c0.15873623 -0.08831787 0.21641254 -1.9380784 0.28854942 -1.812613c0.07213783 0.1254654 -0.03374195 2.5607486 0.14427567 2.5654054c0.17801762 0.0046567917 0.67843914 -2.3608813 0.92383003 -2.5374641c0.24539185 -0.17658281 0.44750977 1.519825 0.5485134 1.4779673c0.10100365 -0.04185772 -0.13009262 -1.8220358 0.05750847 -1.7291145c0.187603 0.09292126 0.90449333 2.300558 1.0681057 2.286642c0.16361237 -0.013916969 -0.22117615 -2.3236804 -0.086429596 -2.370141c0.13474655 -0.04646063 0.66879845 2.0449162 0.8949089 2.0913773c0.22610855 0.04646015 0.25491905 -1.8405008 0.46174622 -1.8126135c0.20682716 0.027886868 0.56275177 1.9380789 0.7792187 1.9799366c0.21646881 0.04185772 0.3127079 -1.7427602 0.5195923 -1.7287893c0.20688438 0.013970375 0.62065125 1.8544712 0.7217121 1.8126135c0.10105896 -0.04185772 -0.26932526 -1.9754424 -0.11535263 -2.0637608c0.15397072 -0.088318825 0.88526726 1.6175108 1.0391827 1.5338497c0.1539154 -0.08366203 -0.20710754 -2.077623 -0.115688324 -2.0358195c0.09141731 0.041803837 0.5246353 2.398191 0.66420174 2.2866416c0.13956642 -0.111548424 0.5051861 -2.4539647 0.1731968 -2.955934c-0.3319893 -0.50196934 -1.3183727 -0.10234308 -2.1651325 -0.05588293c-0.8467617 0.04646063 -1.9773064 0.30675936 -2.91543 0.3346467c-0.9381237 0.027886868 -1.8473263 -0.14874983 -2.7133121 -0.16732311c-0.8659859 -0.018573761 -1.6551266 0.08837223 -2.482606 0.055882454c-0.8274784 -0.032489777 -2.0108252 -0.31591034 -2.4822693 -0.25082207c-0.47144413 0.065087795 -0.36079884 0.027886868 -0.34639454 0.6413512z" fill-rule="evenodd"/><path fill="#000000" d="m13.051797 16.50207l0 0c-0.8811979 0 -1.5955496 -0.71539116 -1.5955496 -1.5978708l0 0c0 -0.4237814 0.16810226 -0.8302059 0.46732616 -1.1298656c0.29922295 -0.29965878 0.70505714 -0.46800518 1.1282234 -0.46800518l0 0c0.8811979 0 1.5955496 0.71539116 1.5955496 1.5978708l0 0c0 0.88247967 -0.71435165 1.5978708 -1.5955496 1.5978708z" fill-rule="evenodd"/><path fill="#000000" d="m18.9494 16.50207l0 0c-0.881197 0 -1.5955486 -0.71539116 -1.5955486 -1.5978708l0 0c0 -0.4237814 0.16810036 -0.8302059 0.4673252 -1.1298656c0.29922295 -0.29965878 0.70505714 -0.46800518 1.1282234 -0.46800518l0 0c0.881197 0 1.5955505 0.71539116 1.5955505 1.5978708l0 0c0 0.88247967 -0.71435356 1.5978708 -1.5955505 1.5978708z" fill-rule="evenodd"/></g></svg>
