<svg version="1.1" viewBox="0.0 0.0 32.0 32.0" fill="none" stroke="none" stroke-linecap="square" stroke-miterlimit="10" xmlns:xlink="http://www.w3.org/1999/xlink" xmlns="http://www.w3.org/2000/svg"><clipPath id="p.0"><path d="m0 0l32.0 0l0 32.0l-32.0 0l0 -32.0z" clip-rule="nonzero"/></clipPath><g clip-path="url(#p.0)"><path fill="#000000" fill-opacity="0.0" d="m0 0l32.0 0l0 32.0l-32.0 0z" fill-rule="evenodd"/><path fill="#000000" d="m16.014263 0l-1.6985922 2.9289289l-2.5997715 -2.5649977l-0.90118027 3.3449292l-2.9982934 -1.7157022l-0.034773827 3.2755651l-3.154316 -0.83200073l0.88406944 3.310339l-3.4663622 0.01729536l1.7850661 3.1544995l-3.240975 0.86640644l2.3743844 2.4437494l-2.9635189 1.6812954l2.9289289 1.715703l-2.5649977 2.5477028l3.3795192 0.93595314l-1.7329972 2.9464092l3.3101554 0.051883698l-0.84911156 3.1197262l3.3449287 -0.8665905l-0.017294884 3.448883l3.1889062 -1.8023605l0.8665905 3.310339l2.4437485 -2.4612274l1.733181 2.9637032l1.6984081 -2.9289284l2.5997715 2.5997715l0.90118027 -3.3797035l2.998293 1.6984062l0 -3.2755642l3.2063847 0.8665905l-0.88388634 -3.3449287l3.5009537 0.01729393l-1.8717251 -3.1716099l3.29286 -0.9013653l-2.35709 -2.3916798l2.8943367 -1.6811123l-2.9116325 -1.7158861l2.5477028 -2.5649977l-3.3795185 -0.90118027l1.7504749 -3.0157719l-3.310339 0l0.88388634 -3.154316l-3.3624077 0.90118074l-0.034589767 -3.4488833l-3.154316 1.7850661l-0.8665905 -3.2755651l-2.4610443 2.3916795z" fill-rule="evenodd"/><path fill="#000000" fill-opacity="0.0" d="m22.478224 24.601274l-12.944881 -12.9763775" fill-rule="evenodd"/><path stroke="#ffffff" stroke-width="1.0" stroke-linejoin="round" stroke-linecap="butt" d="m22.478224 24.601274l-12.944881 -12.9763775" fill-rule="evenodd"/><path fill="#000000" fill-opacity="0.0" d="m15.982441 8.944212l0 18.362204" fill-rule="evenodd"/><path stroke="#ffffff" stroke-width="1.0" stroke-linejoin="round" stroke-linecap="butt" d="m15.982441 8.944212l0 18.362204" fill-rule="evenodd"/><path fill="#000000" fill-opacity="0.0" d="m22.472599 11.628012l-12.944881 12.9763775" fill-rule="evenodd"/><path stroke="#ffffff" stroke-width="1.0" stroke-linejoin="round" stroke-linecap="butt" d="m22.472599 11.628012l-12.944881 12.9763775" fill-rule="evenodd"/><path fill="#000000" fill-opacity="0.0" d="m25.165354 18.121836l-18.330708 0" fill-rule="evenodd"/><path stroke="#ffffff" stroke-width="1.0" stroke-linejoin="round" stroke-linecap="butt" d="m25.165354 18.121836l-18.330708 0" fill-rule="evenodd"/><path fill="#ffffff" d="m15.985171 13.15479l-0.5306587 0.9150286l-0.81219673 -0.8013325l-0.281538 1.0449915l-0.93669987 -0.5360031l-0.010863304 1.0233221l-0.9854431 -0.2599268l0.27619362 1.0341864l-1.0829296 0.005402565l0.5576744 0.9855013l-1.012516 0.27067375l0.74178314 0.76345444l-0.92583466 0.5252552l0.9150286 0.5360031l-0.8013334 0.79593086l1.0557985 0.29240227l-0.54140663 0.92048836l1.0341282 0.016210556l-0.2652712 0.9746361l1.0449915 -0.27073288l-0.005402565 1.0774689l0.99624825 -0.5630779l0.27073288 1.0341873l0.7634535 -0.7689152l0.54146385 0.9258938l0.5306015 -0.9150295l0.81219673 0.81219673l0.281538 -1.0558567l0.9366989 0.5306015l0 -1.023323l1.0017109 0.27073288l-0.2761364 -1.0449924l1.0937347 0.0054035187l-0.5847454 -0.9908447l1.0287247 -0.28159714l-0.73638153 -0.74718666l0.9042244 -0.525198l-0.909626 -0.53606033l0.79592896 -0.8013325l-1.0557976 -0.28153992l0.5468674 -0.94215965l-1.0341854 0l0.2761345 -0.98544216l-1.0504532 0.281538l-0.01080513 -1.0774679l-0.9854431 0.55767345l-0.27073288 -1.0233221l-0.76885605 0.74718666z" fill-rule="evenodd"/><path fill="#ffffff" d="m15.992653 4.0296435l-0.30046368 0.51809835l-0.45987415 -0.45372295l-0.15940952 0.5916853l-0.5303688 -0.30349064l-0.0061511993 0.57941484l-0.5579672 -0.14717245l0.15638256 0.5855665l-0.6131649 0.0030589104l0.3157606 0.5580001l-0.57329655 0.1532588l0.42000484 0.4322753l-0.52421665 0.29740477l0.5180979 0.30349064l-0.453722 0.45066357l0.5978031 0.1655612l-0.30655003 0.52119064l0.5855341 0.009178162l-0.15019989 0.5518484l0.5916853 -0.1532917l-0.0030593872 0.61007404l0.56408596 -0.31882l0.1532917 0.5855665l0.43227482 -0.43536758l0.30658245 0.52425003l0.3004322 -0.51809883l0.4598732 0.45987415l0.15941048 -0.59783554l0.5303688 0.30043125l0 -0.5794153l0.5671768 0.1532917l-0.15634918 -0.5916853l0.6192837 0.0030593872l-0.33109093 -0.56102705l0.58247566 -0.15944242l-0.4169464 -0.4230647l0.51198006 -0.29737186l-0.51503944 -0.30352354l0.45066452 -0.45372295l-0.597805 -0.15941l0.3096428 -0.53346014l-0.5855675 0l0.15635109 -0.55796766l-0.59477615 0.15941l-0.0061187744 -0.61007357l-0.55796814 0.3157606l-0.1532917 -0.57941484l-0.43533325 0.42306423z" fill-rule="evenodd"/></g></svg>
