<svg version="1.1" viewBox="0.0 0.0 32.0 32.0" fill="none" stroke="none" stroke-linecap="square" stroke-miterlimit="10" xmlns:xlink="http://www.w3.org/1999/xlink" xmlns="http://www.w3.org/2000/svg"><clipPath id="p.0"><path d="m0 0l32.0 0l0 32.0l-32.0 0l0 -32.0z" clip-rule="nonzero"/></clipPath><g clip-path="url(#p.0)"><path fill="#000000" fill-opacity="0.0" d="m0 0l32.0 0l0 32.0l-32.0 0z" fill-rule="evenodd"/><path fill="#000000" d="m16.009012 0.089238845l-1.6985903 2.9289289l-2.5997715 -2.5649977l-0.9011812 3.3449292l-2.9982924 -1.715702l-0.034774303 3.275565l-3.154316 -0.83200026l0.88406944 3.310339l-3.466362 0.017294884l1.7850661 3.1545l-3.2409751 0.86640644l2.3743846 2.4437485l-2.9635189 1.6812963l2.9289289 1.715703l-2.5649977 2.547701l3.3795192 0.93595505l-1.7329972 2.9464073l3.3101552 0.051885605l-0.84911156 3.1197262l3.3449292 -0.8665905l-0.01729536 3.448883l3.1889067 -1.8023605l0.8665905 3.310339l2.4437485 -2.4612274l1.733181 2.9637032l1.6984062 -2.9289303l2.5997715 2.5997715l0.9011822 -3.3797016l2.998293 1.6984062l0 -3.2755642l3.2063847 0.8665905l-0.88388634 -3.3449306l3.5009518 0.017295837l-1.8717251 -3.1716118l3.29286 -0.9013634l-2.357088 -2.3916798l2.8943367 -1.6811123l-2.9116325 -1.7158861l2.5477028 -2.5649977l-3.3795185 -0.90118027l1.7504749 -3.0157719l-3.310339 0l0.88388634 -3.1543164l-3.3624077 0.90118074l-0.034591675 -3.448883l-3.154316 1.7850661l-0.8665905 -3.2755651l-2.4610424 2.3916795z" fill-rule="evenodd"/><path fill="#ffffff" d="m15.887844 15.341182c-0.6927023 -0.4427719 -0.70205307 -0.46646976 -0.9976196 -0.743906c-0.2955675 -0.2774372 -0.5632973 -0.6314621 -0.77578354 -0.9207134c-0.21248627 -0.28925133 -0.3236189 -0.49009895 -0.49913216 -0.8147936c-0.17551327 -0.32469463 -0.3507042 -0.5844097 -0.5539465 -1.1333752c-0.20324326 -0.5489664 -0.5362129 -1.5110989 -0.6655102 -2.1604195c-0.12929726 -0.64932156 -0.054922104 -1.2101011 -0.11027336 -1.735507c-0.05535221 -0.5254054 -0.08318901 -1.0390649 -0.22183704 -1.416925c-0.13864803 -0.37786055 -0.3790779 -0.6554346 -0.6100502 -0.85023785c-0.23097229 -0.19480324 -0.470973 -0.28320646 -0.77578354 -0.31858158c-0.30481052 -0.03537464 -0.7482691 0.0059762 -1.0530796 0.10633135c-0.30480957 0.10035515 -0.58189106 0.28327513 -0.7757826 0.49580002c-0.19389248 0.21252537 -0.38756943 0.2598524 -0.38756943 0.7793503c0 0.5194979 0.12897491 1.4286022 0.38756943 2.337638c0.2585945 0.9090357 0.7759981 2.2665453 1.1639967 3.1165762c0.38799953 0.85003185 0.6005926 1.3401308 1.1639977 1.983613c0.56340504 0.6434822 1.4590273 1.3577833 2.2164316 1.8772821c0.7574043 0.5194969 1.6629152 0.8323784 2.3279953 1.239706c0.6650801 0.40732765 1.2006483 0.80875015 1.6624842 1.2042637c0.46183777 0.39551353 0.8129711 0.7083931 1.1085396 1.1688175c0.29556656 0.46042633 0.5170803 0.8735924 0.6648636 1.5937328c0.14778328 0.72013855 0.147892 2.0364342 0.221838 2.727106c0.07394409 0.6906719 0.07405281 0.9918766 0.22183609 1.4169254c0.14778328 0.42505074 0.43400002 0.8795681 0.6648655 1.1333752c0.23086357 0.25380898 0.36929703 0.30683708 0.72032356 0.38946915c0.35102654 0.08263397 1.0255642 0.17715073 1.3858337 0.10633087c0.36026955 -0.07081795 0.581892 -0.27152824 0.77578354 -0.5312424c0.19389153 -0.25971603 0.40605545 -0.4898243 0.38756943 -1.0270443c-0.018486023 -0.53722 -0.13832664 -1.2399826 -0.49848747 -2.1962757c-0.36016273 -0.956295 -0.997406 -2.555727 -1.6624851 -3.5414886c-0.665081 -0.98576164 -1.4135647 -1.658781 -2.3279953 -2.373083c-0.9144306 -0.71430016 -2.465891 -1.4699526 -3.1585922 -1.9127245z" fill-rule="evenodd"/><path fill="#ffffff" d="m16.11954 15.148617c0.65143013 -0.42941856 0.6691189 -0.4413271 1.085331 -0.8825178c0.41621208 -0.44119072 1.0137329 -1.0293999 1.4119415 -1.7646255c0.3982067 -0.73522663 0.7511387 -1.805624 0.97730255 -2.6467333c0.22616386 -0.8411093 0.29828644 -1.7881708 0.37967682 -2.3999238c0.08138847 -0.61175346 0.018110275 -0.9235163 0.108659744 -1.2705965c0.09054947 -0.34707975 0.16319847 -0.6236625 0.43463707 -0.81188345c0.2714386 -0.18822145 0.7868328 -0.3704195 1.1939907 -0.31744385c0.407156 0.052975655 0.97740746 0.20006227 1.248951 0.63529825c0.2715435 0.43523598 0.52508163 1.0232391 0.38030815 1.9761176c-0.14477348 0.95287895 -0.66080093 2.588214 -1.248951 3.7411547c-0.58815193 1.1529408 -1.4926987 2.3941736 -2.279953 3.1764898c-0.78725433 0.7823162 -1.737709 1.1116009 -2.443575 1.5174055c-0.70586395 0.4058056 -1.1581917 0.3586464 -1.7916174 0.91742516c-0.63342476 0.55877686 -1.4751148 1.4470444 -2.008936 2.4352398c-0.5338211 0.9881973 -0.976882 2.5821915 -1.1939907 3.4939346c-0.21710777 0.9117451 -0.045274734 1.447113 -0.10865879 1.9765282c-0.06338501 0.52941513 -0.09970951 0.905859 -0.2716484 1.1999626c-0.1719389 0.29410362 -0.3618822 0.47055244 -0.75998497 0.56466293c-0.3981018 0.094112396 -1.2214708 0.123542786 -1.6286278 0c-0.40715694 -0.12354088 -0.6695404 -0.36480713 -0.8143139 -0.7412491c-0.14477444 -0.37644196 -0.2714386 -0.73508835 -0.054329872 -1.5174046c0.21710777 -0.7823162 0.5968895 -1.91185 1.3569794 -3.1764908c0.7600899 -1.2646427 2.19909 -3.3938007 3.203558 -4.41136c1.0044689 -1.0175581 2.1718206 -1.2645721 2.8232508 -1.6939907z" fill-rule="evenodd"/></g></svg>
