<svg version="1.1" viewBox="0.0 0.0 32.0 32.0" fill="none" stroke="none" stroke-linecap="square" stroke-miterlimit="10" xmlns:xlink="http://www.w3.org/1999/xlink" xmlns="http://www.w3.org/2000/svg"><clipPath id="p.0"><path d="m0 0l32.0 0l0 32.0l-32.0 0l0 -32.0z" clip-rule="nonzero"/></clipPath><g clip-path="url(#p.0)"><path fill="#000000" fill-opacity="0.0" d="m0 0l32.0 0l0 32.0l-32.0 0z" fill-rule="evenodd"/><path fill="#000000" d="m16.009012 0.089238845l-1.6985903 2.9289289l-2.5997715 -2.5649977l-0.9011812 3.3449292l-2.9982924 -1.715702l-0.034774303 3.275565l-3.154316 -0.83200026l0.88406944 3.310339l-3.466362 0.017294884l1.7850661 3.1545l-3.2409751 0.86640644l2.3743846 2.4437485l-2.9635189 1.6812963l2.9289289 1.715703l-2.5649977 2.547701l3.3795192 0.93595505l-1.7329972 2.9464073l3.3101552 0.051885605l-0.84911156 3.1197262l3.3449292 -0.8665905l-0.01729536 3.448883l3.1889067 -1.8023605l0.8665905 3.310339l2.4437485 -2.4612274l1.733181 2.9637032l1.6984062 -2.9289303l2.5997715 2.5997715l0.9011822 -3.3797016l2.998293 1.6984062l0 -3.2755642l3.2063847 0.8665905l-0.88388634 -3.3449306l3.5009518 0.017295837l-1.8717251 -3.1716118l3.29286 -0.9013634l-2.357088 -2.3916798l2.8943367 -1.6811123l-2.9116325 -1.7158861l2.5477028 -2.5649977l-3.3795185 -0.90118027l1.7504749 -3.0157719l-3.310339 0l0.88388634 -3.1543164l-3.3624077 0.90118074l-0.034591675 -3.448883l-3.154316 1.7850661l-0.8665905 -3.2755651l-2.4610424 2.3916795z" fill-rule="evenodd"/><path fill="#000000" fill-opacity="0.0" d="m25.82099 13.835314l-24.714027 0.7454424" fill-rule="evenodd"/><path stroke="#ffffff" stroke-width="1.0" stroke-linejoin="round" stroke-linecap="butt" d="m25.82099 13.835314l-24.714027 0.7454424" fill-rule="evenodd"/><path fill="#000000" fill-opacity="0.0" d="m24.925982 21.97442l-24.003857 -0.9174671" fill-rule="evenodd"/><path stroke="#ffffff" stroke-width="1.0" stroke-linejoin="round" stroke-linecap="butt" d="m24.925982 21.97442l-24.003857 -0.9174671" fill-rule="evenodd"/><path fill="#000000" fill-opacity="0.0" d="m25.98569 17.966547l-24.92708 -0.40139198" fill-rule="evenodd"/><path stroke="#ffffff" stroke-width="1.0" stroke-linejoin="round" stroke-linecap="butt" d="m25.98569 17.966547l-24.92708 -0.40139198" fill-rule="evenodd"/><path fill="#000000" fill-opacity="0.0" d="m24.718615 9.80065l-23.554077 1.1468344" fill-rule="evenodd"/><path stroke="#ffffff" stroke-width="1.0" stroke-linejoin="round" stroke-linecap="butt" d="m24.718615 9.80065l-23.554077 1.1468344" fill-rule="evenodd"/><path fill="#000000" fill-opacity="0.0" d="m21.705275 6.841555l0 0c3.2276192 1.9026656 5.1673794 5.4080224 5.0651703 9.1533165c-0.10220909 3.7452927 -2.2302608 7.139639 -5.5568466 8.863441l-4.738533 -9.144402z" fill-rule="evenodd"/><path fill="#000000" fill-opacity="0.0" d="m21.705275 6.841555l0 0c3.2276192 1.9026656 5.1673794 5.4080224 5.0651703 9.1533165c-0.10220909 3.7452927 -2.2302608 7.139639 -5.5568466 8.863441" fill-rule="evenodd"/><path stroke="#ffffff" stroke-width="2.0" stroke-linejoin="round" stroke-linecap="butt" d="m21.705275 6.841555l0 0c3.2276192 1.9026656 5.1673794 5.4080224 5.0651703 9.1533165c-0.10220909 3.7452927 -2.2302608 7.139639 -5.5568466 8.863441" fill-rule="evenodd"/></g></svg>
