<svg version="1.1" viewBox="0.0 0.0 32.0 32.0" fill="none" stroke="none" stroke-linecap="square" stroke-miterlimit="10" xmlns:xlink="http://www.w3.org/1999/xlink" xmlns="http://www.w3.org/2000/svg"><clipPath id="p.0"><path d="m0 0l32.0 0l0 32.0l-32.0 0l0 -32.0z" clip-rule="nonzero"/></clipPath><g clip-path="url(#p.0)"><path fill="#000000" fill-opacity="0.0" d="m0 0l32.0 0l0 32.0l-32.0 0z" fill-rule="evenodd"/><path fill="#000000" d="m16.014263 0l-1.6985922 2.9289289l-2.5997715 -2.5649977l-0.90118027 3.3449292l-2.9982934 -1.7157022l-0.034773827 3.2755651l-3.154316 -0.83200073l0.88406944 3.310339l-3.4663622 0.01729536l1.7850661 3.1544995l-3.240975 0.86640644l2.3743844 2.4437494l-2.9635189 1.6812954l2.9289289 1.715703l-2.5649977 2.5477028l3.3795192 0.93595314l-1.7329972 2.9464092l3.3101554 0.051883698l-0.84911156 3.1197262l3.3449287 -0.8665905l-0.017294884 3.448883l3.1889062 -1.8023605l0.8665905 3.310339l2.4437485 -2.4612274l1.733181 2.9637032l1.6984081 -2.9289284l2.5997715 2.5997715l0.90118027 -3.3797035l2.998293 1.6984062l0 -3.2755642l3.2063847 0.8665905l-0.88388634 -3.3449287l3.5009537 0.01729393l-1.8717251 -3.1716099l3.29286 -0.9013653l-2.35709 -2.3916798l2.8943367 -1.6811123l-2.9116325 -1.7158861l2.5477028 -2.5649977l-3.3795185 -0.90118027l1.7504749 -3.0157719l-3.310339 0l0.88388634 -3.154316l-3.3624077 0.90118074l-0.034589767 -3.4488833l-3.154316 1.7850661l-0.8665905 -3.2755651l-2.4610443 2.3916795z" fill-rule="evenodd"/><path fill="#000000" fill-opacity="0.0" d="m8.701952 6.8170033l14.834646 18.393702" fill-rule="evenodd"/><path stroke="#ffffff" stroke-width="1.0" stroke-linejoin="round" stroke-linecap="butt" d="m8.701952 6.8170033l14.834646 18.393702" fill-rule="evenodd"/><path fill="#000000" fill-opacity="0.0" d="m11.388452 26.666666l9.259843 -21.732283" fill-rule="evenodd"/><path stroke="#ffffff" stroke-width="1.0" stroke-linejoin="round" stroke-linecap="butt" d="m11.388452 26.666666l9.259843 -21.732283" fill-rule="evenodd"/><path fill="#000000" fill-opacity="0.0" d="m5.0131235 17.603674l22.740158 -3.370078" fill-rule="evenodd"/><path stroke="#ffffff" stroke-width="1.0" stroke-linejoin="round" stroke-linecap="butt" d="m5.0131235 17.603674l22.740158 -3.370078" fill-rule="evenodd"/><path fill="#ffffff" d="m7.6877956 6.0172477l0.18604231 0.699739l-0.7809777 0.00525856l0.36952543 0.64206505l-0.7128153 0.19394398l0.4900484 0.5005646l-0.6027813 0.3511629l0.6342473 0.36688328l-0.5215421 0.5267725l0.7469244 0.20707512l-0.35906458 0.621088l0.7285619 0.01048851l-0.19388819 0.70235443l0.7023268 -0.18345547l-0.002614975 0.77310467l0.65255356 -0.3694973l0.18348312 0.7075844l0.5083828 -0.49269104l0.3433447 0.6001377l0.37475586 -0.63683414l0.5188999 0.5241289l0.20966244 -0.75474167l0.6316042 0.36952496l-0.0026426315 -0.7416935l0.71022797 0.18607044l-0.18607044 -0.6997118l0.7862358 0l-0.37478352 -0.64732265l0.7102003 -0.19655895l-0.49530697 -0.49530697l0.6158848 -0.3538065l-0.6394491 -0.37214088l0.53200245 -0.5267725l-0.7626152 -0.19655895l0.36162376 -0.63421917l-0.71807384 -0.0052309036l0.18345547 -0.69186544l-0.69973946 0.18081236l-0.002614975 -0.77310467l-0.647295 0.37475586l-0.191329 -0.7207165l-0.5005646 0.5005646l-0.343318 -0.6106267l-0.37216854 0.64470816l-0.52674484 -0.516284l-0.20704746 0.74689674l-0.62634563 -0.36426735l-0.010489464 0.7337928z" fill-rule="evenodd"/><path fill="#ffffff" d="m24.335684 25.699076l-0.18604279 -0.69973946l0.78097725 -0.00525856l-0.3695259 -0.64206505l0.71281624 -0.19394493l-0.49004936 -0.5005646l0.6027813 -0.35116196l-0.6342468 -0.36688232l0.5215416 -0.52677345l-0.74692345 -0.20707512l0.3590641 -0.621088l-0.7285614 -0.01048851l0.19388771 -0.70235443l-0.7023258 0.18345451l0.002614975 -0.7731037l-0.65255356 0.3694973l-0.18348312 -0.7075844l-0.5083828 0.49269104l-0.34334564 -0.6001377l-0.37475586 0.6368332l-0.5188999 -0.52412796l-0.20966339 0.75474167l-0.63160324 -0.3695259l0.0026435852 0.7416935l-0.71022797 -0.18606949l0.18606949 0.69971085l-0.7862358 0l0.37478447 0.6473236l-0.71020126 0.1965599l0.49530602 0.49530602l-0.6158848 0.35380554l0.6394501 0.37214088l-0.5320034 0.52677345l0.7626171 0.196558l-0.36162567 0.6342201l0.7180748 0.00522995l-0.18345642 0.6918659l0.69973946 -0.18081284l0.002614975 0.7731056l0.6472969 -0.37475586l0.19132805 0.7207165l0.5005646 -0.5005646l0.34331703 0.6106262l0.3721695 -0.64470863l0.52674484 0.51628494l0.20704842 -0.74689674l0.6263447 0.36426735l0.01048851 -0.73379326z" fill-rule="evenodd"/><path fill="#ffffff" d="m20.323 3.7360919l-0.5094528 0.5029838l-0.38763618 -0.66788244l-0.36993027 0.6322093l-0.51618195 -0.5168028l-0.18932915 0.66626215l-0.5971737 -0.3452134l-0.003824234 0.7244754l-0.7080803 -0.18932247l0.1886425 0.74281216l-0.70934296 -0.0035691261l0.34840393 0.63060904l-0.69808006 0.17810011l0.5020313 0.51294374l-0.66498566 0.37701368l0.637331 0.3789482l-0.5174446 0.50463533l0.6723671 0.19474459l-0.34677887 0.5891657l0.7305584 0.009315491l-0.19540596 0.70259l0.75079346 -0.19025707l-0.007390976 0.7235031l0.6354408 -0.36611938l0.18867302 0.701004l0.5094166 -0.50299454l0.38570023 0.67497635l0.37186432 -0.6393032l0.51714516 0.51327515l0.18223572 -0.6681967l0.6058712 0.35516644l0.0057868958 -0.7315216l0.71321297 0.19830322l-0.20536995 -0.7511244l0.7218723 -6.752014E-4l-0.3477726 -0.61902523l0.68395615 -0.18191147l-0.4984932 -0.51201916l0.6624203 -0.38150358l-0.63926506 -0.37185478l0.524868 -0.5178127l-0.67529106 -0.18417025l0.35579872 -0.5942874l-0.73604965 -0.0032315254l0.18482208 -0.70547676l-0.74277496 0.18865347l0.0054569244 -0.7164092l-0.6350994 0.3509693z" fill-rule="evenodd"/><path fill="#ffffff" d="m11.697199 27.97519l0.5094528 -0.502985l0.38763618 0.6678829l0.3699293 -0.6322098l0.51618195 0.51680374l0.18932915 -0.6662617l0.59717464 0.34521294l0.0038251877 -0.72447586l0.7080803 0.18932152l-0.18864346 -0.7428112l0.70934296 0.0035686493l-0.34840393 -0.6306095l0.69808006 -0.17809868l-0.5020323 -0.5129452l0.6649866 -0.37701225l-0.63733196 -0.3789482l0.5174446 -0.50463676l-0.67236614 -0.19474411l0.34677887 -0.58916473l-0.7305584 -0.009315491l0.19540596 -0.70259094l-0.7507925 0.19025803l0.0073900223 -0.7235031l-0.6354408 0.36611938l-0.18867397 -0.701004l-0.5094156 0.50299454l-0.38570118 -0.67497635l-0.37186432 0.6393032l-0.5171442 -0.51327515l-0.18223572 0.6681957l-0.6058712 -0.35516548l-0.0057868958 0.7315216l-0.713212 -0.19830322l0.205369 0.7511234l-0.7218714 6.752014E-4l0.34777164 0.6190262l-0.6839571 0.18191147l0.49849415 0.5120182l-0.6624203 0.38150406l0.639266 0.37185478l-0.52486897 0.5178127l0.6752901 0.18416977l-0.35579777 0.5942879l0.73604965 0.0032310486l-0.18482208 0.70547676l0.742774 -0.18865395l-0.0054559708 0.7164097l0.6350994 -0.3509693z" fill-rule="evenodd"/><path fill="#ffffff" d="m28.695154 13.5253525l-0.6919861 -0.18355179l0.3786068 -0.6730423l-0.7324829 0.0022592545l0.18318367 -0.7070875l-0.6701298 0.17514133l-0.0057678223 -0.6897507l-0.62610435 0.3645153l-0.19637871 -0.7061558l-0.54418755 0.5396433l-0.35705376 -0.6129379l-0.36641312 0.6203184l-0.50784874 -0.51100254l-0.18704224 0.69293785l-0.6624203 -0.38150406l-0.002910614 0.74147415l-0.6974659 -0.18959904l0.17357635 0.6781397l-0.68364716 3.5095215E-4l0.36287498 0.6341343l-0.70451546 0.18834972l0.5450859 0.55024433l-0.627079 0.36095047l0.6380348 0.36158085l-0.5081539 0.51844406l0.69197655 0.1835146l-0.38570213 0.67497635l0.73957825 -0.0041942596l-0.17965698 0.70612526l0.66819763 -0.18223381l0.0016059875 0.7022953l0.633173 -0.36640167l0.19124603 0.7151375l0.5428581 -0.5582733l0.36707115 0.6215763l0.3567524 -0.6138935l0.5039635 0.49690056l0.18804169 -0.6894188l0.66498566 0.37701225l-0.0041828156 -0.7395382l0.71258736 0.18930435l-0.18416977 -0.67528915l0.6926384 0.0048160553l-0.37090302 -0.6357746l0.70162773 -0.1989336l-0.5396328 -0.54415035l0.6199837 -0.35901546l-0.62480927 -0.3689785z" fill-rule="evenodd"/><path fill="#ffffff" d="m3.3206203 18.189888l0.69198537 0.18355179l-0.37860703 0.6730423l0.7324836 -0.0022602081l-0.18318415 0.7070885l0.6701312 -0.17514229l0.0057663918 0.6897507l0.6261053 -0.3645153l0.19637871 0.7061558l0.544188 -0.53964233l0.3570528 0.6129379l0.36641264 -0.62031937l0.5078497 0.5110035l0.18704271 -0.69293785l0.6624198 0.38150406l0.002910614 -0.74147415l0.6974659 0.18959808l-0.17357635 -0.67813873l0.68364716 -3.528595E-4l-0.36287403 -0.6341324l0.7045145 -0.18835068l-0.5450859 -0.5502453l0.62707806 -0.36094856l-0.63803387 -0.3615818l0.50815296 -0.51844406l-0.6919756 -0.18351364l0.38570118 -0.6749773l-0.7395773 0.004193306l0.17965603 -0.7061243l-0.6681967 0.18223476l-0.0016069412 -0.70229626l-0.63317156 0.36640167l-0.19124699 -0.7151365l-0.54285717 0.5582733l-0.36707115 -0.62157726l-0.3567524 0.6138935l-0.5039635 -0.49690056l-0.18804264 0.68941975l-0.66498613 -0.3770132l0.0041832924 0.73953915l-0.71258736 -0.1893053l0.18416977 0.6752901l-0.6926372 -0.0048179626l0.37090278 0.6357746l-0.7016282 0.19893456l0.53963304 0.5441513l-0.6199839 0.3590145l0.62480855 0.3689785z" fill-rule="evenodd"/></g></svg>
