<svg version="1.1" viewBox="0.0 0.0 32.0 32.0" fill="none" stroke="none" stroke-linecap="square" stroke-miterlimit="10" xmlns:xlink="http://www.w3.org/1999/xlink" xmlns="http://www.w3.org/2000/svg"><clipPath id="p.0"><path d="m0 0l32.0 0l0 32.0l-32.0 0l0 -32.0z" clip-rule="nonzero"/></clipPath><g clip-path="url(#p.0)"><path fill="#000000" fill-opacity="0.0" d="m0 0l32.0 0l0 32.0l-32.0 0z" fill-rule="evenodd"/><path fill="#000000" d="m16.014263 0l-1.6985922 2.9289289l-2.5997715 -2.5649977l-0.90118027 3.3449292l-2.9982934 -1.7157022l-0.034773827 3.2755651l-3.154316 -0.83200073l0.88406944 3.310339l-3.4663622 0.01729536l1.7850661 3.1544995l-3.240975 0.86640644l2.3743844 2.4437494l-2.9635189 1.6812954l2.9289289 1.715703l-2.5649977 2.5477028l3.3795192 0.93595314l-1.7329972 2.9464092l3.3101554 0.051883698l-0.84911156 3.1197262l3.3449287 -0.8665905l-0.017294884 3.448883l3.1889062 -1.8023605l0.8665905 3.310339l2.4437485 -2.4612274l1.733181 2.9637032l1.6984081 -2.9289284l2.5997715 2.5997715l0.90118027 -3.3797035l2.998293 1.6984062l0 -3.2755642l3.2063847 0.8665905l-0.88388634 -3.3449287l3.5009537 0.01729393l-1.8717251 -3.1716099l3.29286 -0.9013653l-2.35709 -2.3916798l2.8943367 -1.6811123l-2.9116325 -1.7158861l2.5477028 -2.5649977l-3.3795185 -0.90118027l1.7504749 -3.0157719l-3.310339 0l0.88388634 -3.154316l-3.3624077 0.90118074l-0.034589767 -3.4488833l-3.154316 1.7850661l-0.8665905 -3.2755651l-2.4610443 2.3916795z" fill-rule="evenodd"/><path fill="#ffffff" d="m17.000143 7.062621c-0.29374123 0.13161325 -0.98145294 0.09382582 -1.5881205 0.28598738c-0.60666656 0.19216156 -1.3825722 0.49987555 -2.051878 0.86698294c-0.6693058 0.3671074 -1.326621 0.77798367 -1.9639559 1.33566c-0.6373348 0.5576763 -1.3633289 1.3616362 -1.860054 2.0103998c-0.49672413 0.64876366 -0.81233406 1.1552591 -1.1202946 1.8821831c-0.3079605 0.726923 -0.597764 1.665554 -0.727468 2.4793558c-0.12970448 0.81380177 -0.12415266 1.6265497 -0.050757885 2.4034567c0.073394775 0.77690506 0.2908392 1.585455 0.491127 2.2579784c0.20028782 0.6725235 0.44799328 1.232708 0.71060085 1.7771606c0.26260662 0.54445267 0.5135441 0.9982605 0.8650446 1.4895554c0.35149956 0.49129486 0.751153 0.9696636 1.2439547 1.4582157c0.4928007 0.4885521 1.0381365 1.0040894 1.7128515 1.4730968c0.67471504 0.4690075 1.8381386 1.0996113 2.3354378 1.3409481c0.49730015 0.24133682 0.5575094 0.22517204 0.64836216 0.10707092c0.090851784 -0.11810112 -0.10016441 -0.5880623 -0.103248596 -0.81567955c-0.003083229 -0.22761917 0.026335716 -0.33519173 0.084747314 -0.55002594c0.0584116 -0.21483421 0.08463955 -0.3565426 0.26572227 -0.73897743c0.18108368 -0.38243675 0.38743782 -0.9590111 0.820776 -1.5556335c0.43333817 -0.59662056 1.1381912 -1.3599777 1.7792511 -2.0240974c0.6410618 -0.6641178 1.4199333 -1.2714558 2.067112 -1.9606113c0.64718056 -0.6891556 1.3298206 -1.534296 1.8159695 -2.1743221c0.48614883 -0.6400261 0.82715416 -1.1237812 1.1009235 -1.6658344c0.27376938 -0.5420532 0.42090988 -1.0034533 0.54169273 -1.5864811c0.12078285 -0.58302784 0.2033844 -1.3080359 0.1830101 -1.9116879c-0.020376205 -0.60365105 -0.11326027 -1.1643753 -0.3052597 -1.7102213c-0.19199944 -0.545846 -0.52955246 -1.1053038 -0.8467369 -1.5648546c-0.31718254 -0.45955086 -0.6437321 -0.8580675 -1.0563679 -1.1924496c-0.4126358 -0.334383 -1.1170006 -0.8892069 -1.4194431 -0.8138442c-0.30244255 0.07536268 -0.22834015 0.7585006 -0.39520836 1.2660222c-0.16686821 0.5075207 -0.28782272 1.0904617 -0.6060047 1.7791061c-0.318182 0.68864346 -0.87215424 1.6513395 -1.3030872 2.3527575c-0.4309349 0.70141697 -0.8763561 1.2780867 -1.2825146 1.8557482c-0.40616035 0.57766056 -0.81777954 1.0864058 -1.154439 1.6102152c-0.33665943 0.52381134 -0.63726044 1.0614033 -0.86551476 1.5326519c-0.22825432 0.47124672 -0.3695526 0.930748 -0.5040121 1.2948341c-0.1344595 0.36408615 -0.20415115 0.488369 -0.30274773 0.88968277c-0.09859657 0.40131378 -0.23532104 1.1173248 -0.2888317 1.518198c-0.053510666 0.4008751 -0.0063915253 1.0792618 -0.032232285 0.8870449c-0.02584076 -0.19221497 -0.15542507 -1.36977 -0.12281227 -2.0403347c0.0326128 -0.67056465 0.123366356 -1.268858 0.31849003 -1.9830513c0.19512367 -0.71419334 0.55518913 -1.6307964 0.8522539 -2.3021069c0.29706478 -0.6713104 0.48041916 -0.90219116 0.9301348 -1.7257566c0.4497156 -0.8235655 1.3286047 -2.3303804 1.7681551 -3.2156353c0.4395523 -0.88525486 0.613945 -1.3889647 0.86915207 -2.095893c0.25520897 -0.7069292 0.48498344 -1.196147 0.6620941 -2.1456804c0.17711067 -0.949533 0.73919106 -2.9161325 0.40057182 -3.5515182c-0.33861923 -0.63538575 -2.0419369 -0.70524573 -2.432291 -0.2607968c-0.39035225 0.44444895 0.10419655 2.3556266 0.090171814 2.9274902c-0.014026642 0.5718632 0.11941528 0.37207794 -0.17432594 0.5036907z" fill-rule="evenodd"/></g></svg>