<svg version="1.1" viewBox="0.0 0.0 32.0 32.0" fill="none" stroke="none" stroke-linecap="square" stroke-miterlimit="10" xmlns:xlink="http://www.w3.org/1999/xlink" xmlns="http://www.w3.org/2000/svg"><clipPath id="p.0"><path d="m0 0l32.0 0l0 32.0l-32.0 0l0 -32.0z" clip-rule="nonzero"/></clipPath><g clip-path="url(#p.0)"><path fill="#000000" fill-opacity="0.0" d="m0 0l32.0 0l0 32.0l-32.0 0z" fill-rule="evenodd"/><path fill="#000000" d="m16.009012 0.089238845l-1.6985903 2.9289289l-2.5997715 -2.5649977l-0.9011812 3.3449292l-2.9982924 -1.715702l-0.034774303 3.275565l-3.154316 -0.83200026l0.88406944 3.310339l-3.466362 0.017294884l1.7850661 3.1545l-3.2409751 0.86640644l2.3743846 2.4437485l-2.9635189 1.6812963l2.9289289 1.715703l-2.5649977 2.547701l3.3795192 0.93595505l-1.7329972 2.9464073l3.3101552 0.051885605l-0.84911156 3.1197262l3.3449292 -0.8665905l-0.01729536 3.448883l3.1889067 -1.8023605l0.8665905 3.310339l2.4437485 -2.4612274l1.733181 2.9637032l1.6984062 -2.9289303l2.5997715 2.5997715l0.9011822 -3.3797016l2.998293 1.6984062l0 -3.2755642l3.2063847 0.8665905l-0.88388634 -3.3449306l3.5009518 0.017295837l-1.8717251 -3.1716118l3.29286 -0.9013634l-2.357088 -2.3916798l2.8943367 -1.6811123l-2.9116325 -1.7158861l2.5477028 -2.5649977l-3.3795185 -0.90118027l1.7504749 -3.0157719l-3.310339 0l0.88388634 -3.1543164l-3.3624077 0.90118074l-0.034591675 -3.448883l-3.154316 1.7850661l-0.8665905 -3.2755651l-2.4610424 2.3916795z" fill-rule="evenodd"/><path fill="#000000" fill-opacity="0.0" d="m3.0866141 10.6482935c6.023622 0 9.035433 3.5826778 12.047245 7.1653547c3.0118113 3.5826778 6.0236216 7.165354 12.047244 7.165354" fill-rule="evenodd"/><path stroke="#b7b7b7" stroke-width="1.0" stroke-linejoin="round" stroke-linecap="butt" d="m3.0866141 10.6482935c6.023622 0 9.035433 3.5826778 12.047245 7.1653547c3.0118113 3.5826778 6.0236216 7.165354 12.047244 7.165354" fill-rule="evenodd"/><path fill="#ffffff" d="m12.169944 19.204172l0 0c0 -1.2129021 1.1869516 -2.1961517 2.6511307 -2.1961517l0 0c1.464179 0 2.6511316 0.98324966 2.6511316 2.1961517l0 0c0 1.2129002 -1.1869526 2.1961498 -2.6511316 2.1961498l0 0c-1.464179 0 -2.6511307 -0.98324966 -2.6511307 -2.1961498z" fill-rule="evenodd"/><path fill="#ffffff" d="m16.088308 19.147938l1.30513 -12.809424l1.3897495 0l-1.30513 12.809424z" fill-rule="evenodd"/><path fill="#ffffff" d="m17.471958 7.7027225l0.66103745 -1.3629112l5.043707 0.015471935l-0.66103745 1.3629107z" fill-rule="evenodd"/><path fill="#ffffff" d="m17.472206 9.634388l0.25424385 -0.52411175l4.890524 0.016634941l-0.25424385 0.52411175z" fill-rule="evenodd"/></g></svg>
