<svg version="1.1" viewBox="0.0 0.0 32.0 32.0" fill="none" stroke="none" stroke-linecap="square" stroke-miterlimit="10" xmlns:xlink="http://www.w3.org/1999/xlink" xmlns="http://www.w3.org/2000/svg"><clipPath id="p.0"><path d="m0 0l32.0 0l0 32.0l-32.0 0l0 -32.0z" clip-rule="nonzero"/></clipPath><g clip-path="url(#p.0)"><path fill="#000000" fill-opacity="0.0" d="m0 0l32.0 0l0 32.0l-32.0 0z" fill-rule="evenodd"/><path fill="#000000" d="m16.014263 0l-1.6985922 2.9289289l-2.5997715 -2.5649977l-0.90118027 3.3449292l-2.9982934 -1.7157022l-0.034773827 3.2755651l-3.154316 -0.83200073l0.88406944 3.310339l-3.4663622 0.01729536l1.7850661 3.1544995l-3.240975 0.86640644l2.3743844 2.4437494l-2.9635189 1.6812954l2.9289289 1.715703l-2.5649977 2.5477028l3.3795192 0.93595314l-1.7329972 2.9464092l3.3101554 0.051883698l-0.84911156 3.1197262l3.3449287 -0.8665905l-0.017294884 3.448883l3.1889062 -1.8023605l0.8665905 3.310339l2.4437485 -2.4612274l1.733181 2.9637032l1.6984081 -2.9289284l2.5997715 2.5997715l0.90118027 -3.3797035l2.998293 1.6984062l0 -3.2755642l3.2063847 0.8665905l-0.88388634 -3.3449287l3.5009537 0.01729393l-1.8717251 -3.1716099l3.29286 -0.9013653l-2.35709 -2.3916798l2.8943367 -1.6811123l-2.9116325 -1.7158861l2.5477028 -2.5649977l-3.3795185 -0.90118027l1.7504749 -3.0157719l-3.310339 0l0.88388634 -3.154316l-3.3624077 0.90118074l-0.034589767 -3.4488833l-3.154316 1.7850661l-0.8665905 -3.2755651l-2.4610443 2.3916795z" fill-rule="evenodd"/><path fill="#000000" fill-opacity="0.0" d="m17.750528 27.55382l-2.5712347 -1.3700943l2.4558783 -1.3086281l-2.8049831 -1.494648l2.917303 -1.5544987l-2.6865902 -1.4315643l2.826233 -1.5059719l-3.3331947 -1.7761078l3.0114098 -1.6046448l-1.551239 -0.82658577l0 -3.9372034" fill-rule="evenodd"/><path stroke="#ffffff" stroke-width="1.0" stroke-linejoin="round" stroke-linecap="butt" d="m17.750528 27.55382l-2.5712347 -1.3700943l2.4558783 -1.3086281l-2.8049831 -1.494648l2.917303 -1.5544987l-2.6865902 -1.4315643l2.826233 -1.5059719l-3.3331947 -1.7761078l3.0114098 -1.6046448l-1.551239 -0.82658577l0 -3.9372034" fill-rule="evenodd"/><path fill="#000000" d="m11.574807 12.498693l4.645669 -8.031496l4.64567 8.031496z" fill-rule="evenodd"/><path stroke="#ffffff" stroke-width="1.0" stroke-linejoin="round" stroke-linecap="butt" d="m11.574807 12.498693l4.645669 -8.031496l4.64567 8.031496z" fill-rule="evenodd"/><path fill="#000000" d="m-6.2223134 6.535818l-1.3125 0l-2.1093755 -2.546875l2.1875005 0l1.234375 2.546875z" fill-rule="nonzero"/></g></svg>
