<svg version="1.1" viewBox="0.0 0.0 179.90551181102362 179.90551181102362" fill="none" stroke="none" stroke-linecap="square" stroke-miterlimit="10" xmlns:xlink="http://www.w3.org/1999/xlink" xmlns="http://www.w3.org/2000/svg"><clipPath id="p.0"><path d="m0 0l179.90552 0l0 179.90552l-179.90552 0l0 -179.90552z" clip-rule="nonzero"/></clipPath><g clip-path="url(#p.0)"><path fill="#000000" fill-opacity="0.0" d="m0 0l179.90552 0l0 179.90552l-179.90552 0z" fill-rule="evenodd"/><path fill="#ffffff" d="m44.27105 11.934188l-0.11634827 6.2606l-5.856571 -2.9529047l0.70264435 7.559659l-6.91008 -2.7172966l1.5225449 7.559658l-7.3782063 -2.007719l2.2251892 6.969261l-7.4954643 -1.4173203l2.5760536 7.0875244l-7.2609463 -0.8269234l3.1623478 6.850998l-7.4954643 0l4.2158566 7.0875244l-7.144596 0.5903969l3.9822493 6.0240746l-6.91008 1.1817131l4.8021507 5.6692886l-7.0273385 1.8903732l4.91941 4.96154l-6.4419546 2.4798508l5.504794 4.7250214l-6.441954 3.071167l5.973829 4.252884l-6.559213 3.5432968l6.0901785 3.779831l-6.91008 4.7250214l6.7928214 3.071167l-5.7384024 4.7250137l7.0273385 2.7173004l-5.271186 5.197151l7.027339 1.8894577l-4.450375 5.1980667l7.0273385 1.5355835l-4.0995083 6.0240784l7.379114 0.82691956l-3.7477312 6.260605l6.558304 -0.118270874l-2.9278307 5.551941l7.4954634 -0.5913086l-2.6933117 6.7336426l7.2609463 -1.063446l-2.1079292 7.442322l7.4954643 -2.1269073l-1.4052849 7.2057953l6.67556 -2.480774l-0.70264053 7.324051l6.67556 -3.071167l0 7.441391l7.6127243 -4.2519684l0.8199005 7.2048798l5.622055 -4.0163574l1.1716766 6.7336426l5.621147 -4.725006l1.7570572 7.20578l5.270279 -5.198059l2.6942215 7.20578l4.3331146 -5.551941l3.0450897 6.4971313l4.2158585 -5.9067383l3.2796097 6.260605l3.8649902 -6.732727l5.153015 7.20578l3.162346 -6.3788605l4.4503784 5.6701965l2.4597015 -6.9692535l5.270279 4.960617l1.7570648 -7.3231354l5.9729156 5.3154144l1.0544205 -7.6779175l6.090172 4.6067505l0.5853882 -7.6779175l6.324692 3.779831l-0.117248535 -6.4971313l5.9729156 3.071167l-0.8199005 -7.5596466l6.91008 2.5990295l-1.4052887 -7.442322l7.0273438 2.0086365l-1.639801 -6.8519135l7.3791046 1.2999725l-2.5769653 -7.0875244l7.1446075 0.47213745l-3.0450897 -6.4962006l7.2609406 0l-4.0995026 -7.0875244l7.0273285 -0.8269272l-3.8649902 -5.551941l6.676483 -1.5355835l-4.33403 -5.551941l7.0273438 -2.007721l-5.0357666 -4.96154l6.6755676 -2.7163773l-5.622055 -4.488495l6.4419556 -3.3076935l-5.9729156 -3.8980942l6.207428 -3.8980942l-5.7393036 -3.3076935l6.559204 -4.8423615l-6.559204 -3.1894302l5.3875275 -4.7250137l-6.792816 -2.5990372l5.270279 -5.3154144l-6.91008 -1.77211l4.3331146 -5.551941l-7.143692 -1.4173203l3.982254 -5.787548l-7.1446075 -0.7086601l3.8650055 -6.733654l-6.5592194 0.23652649l2.2251892 -5.551941l-6.91008 0.5913162l2.4597015 -7.0875244l-7.0273438 1.4173203l1.9915924 -7.324049l-7.37912 2.0086365l1.1716766 -7.2057877l-6.6755676 2.48077l0.5853882 -7.2057877l-6.324692 3.071169l-0.117263794 -7.559658l-7.6127167 4.488489l-0.5853882 -7.0875235l-5.9729233 4.1346188l-1.0544128 -7.0875244l-5.504799 4.48849l-1.7561493 -7.20487l-5.504799 5.5510225l-2.5769577 -7.086607l-4.5676346 5.5510235l-2.8105774 -6.259684l-4.0995026 5.6692863l-3.630478 -6.142338l-3.6304703 6.4971266l-5.1539307 -7.3240504l-3.0450897 6.4971266l-4.567627 -5.315414l-2.4597092 6.7327356l-5.153015 -5.078888l-1.8734131 7.20487l-5.973831 -4.9606247l-1.0535088 7.4413958l-5.856571 -4.2519646l-0.58538055 7.3231335z" fill-rule="evenodd"/><path fill="#000000" d="m47.427494 17.93551l-0.108314514 5.77866l-5.4520264 -2.7255917l0.65410614 6.9777164l-6.43277 -2.5081196l1.4173775 6.9777184l-6.868559 -1.8531647l2.0714817 6.432766l-6.9777164 -1.3082161l2.3981152 6.5419273l-6.7593994 -0.7632637l2.9439087 6.3236084l-6.9777164 0l3.9246483 6.5419273l-6.651087 0.5449486l3.707178 5.560341l-6.432769 1.090744l4.470443 5.232868l-6.5419264 1.7448502l4.579603 4.579605l-5.9969788 2.2889557l5.124552 4.3612823l-5.9969783 2.834755l5.561188 3.9254913l-6.1061373 3.2705383l5.6695013 3.488861l-6.4327683 4.3612823l6.32361 2.834755l-5.3420243 4.3612823l6.541928 2.5081253l-4.9070807 4.7970734l6.5419273 1.7440033l-4.142967 4.79792l6.5419273 1.4173813l-3.8163357 5.560341l6.8694057 0.7632675l-3.4888592 5.778656l6.1052914 -0.10916138l-2.7255917 5.1245575l6.9777164 -0.5457916l-2.5072727 6.2152863l6.7593994 -0.98158264l-1.9623241 6.8694l6.9777184 -1.9631653l-1.3082161 6.6510925l6.214451 -2.2898102l-0.65410995 6.760254l6.214451 -2.8347473l0 6.8685455l7.086876 -3.9246368l0.7632675 6.650238l5.2337112 -3.7071838l1.090744 6.2153015l5.232868 -4.3612823l1.6356888 6.6510773l4.9062347 -4.7979126l2.5081177 6.6510773l4.0338135 -5.124542l2.8347473 5.9969788l3.924652 -5.4520264l3.05307 5.778656l3.5980148 -6.214447l4.7970734 6.6510773l2.9439087 -5.8878174l4.142967 5.233719l2.2898026 -6.43277l4.9062347 4.5787506l1.6356964 -6.7593994l5.560341 4.9062347l0.98158264 -7.0868835l5.6695023 4.252136l0.5449524 -7.0868835l5.8878174 3.488861l-0.10916138 -5.9969788l5.5603485 2.8347473l-0.76327515 -6.977707l6.43277 2.3989563l-1.3082123 -6.8694l6.541931 1.8540039l-1.526535 -6.3244476l6.8694 1.1998901l-2.3989563 -6.541916l6.6510773 0.43579102l-2.8347473 -5.9961395l6.7593994 0l-3.81633 -6.5419235l6.541916 -0.7632675l-3.5980072 -5.1245575l6.2152863 -1.4173737l-4.0346527 -5.12455l6.541931 -1.8531647l-4.687912 -4.579605l6.214447 -2.5072708l-5.2337036 -4.142967l5.9969788 -3.05307l-5.5603485 -3.5980148l5.778656 -3.5980225l-5.342865 -3.05307l6.10614 -4.469597l-6.10614 -2.9439087l5.015396 -4.3612823l-6.3236084 -2.398964l4.9062347 -4.9062347l-6.43277 -1.6356888l4.033798 -5.1245537l-6.650238 -1.3082199l3.7071838 -5.342022l-6.6510925 -0.65410995l3.5980225 -6.215294l-6.10614 0.21831512l2.0714874 -5.12455l-6.43277 0.54579544l2.289795 -6.5419273l-6.541931 1.3082161l1.8540192 -6.7602463l-6.8694 1.8540115l1.090744 -6.651087l-6.2144623 2.2898006l0.5449524 -6.651085l-5.8878174 2.8347492l-0.10916138 -6.9777164l-7.086876 4.142967l-0.54494476 -6.5419283l-5.560341 3.8163366l-0.9815903 -6.5419283l-5.12455 4.1429663l-1.6348495 -6.65024l-5.12455 5.123706l-2.398964 -6.5410814l-4.252121 5.123707l-2.6164322 -5.777815l-3.8163376 5.2328653l-3.3796997 -5.6695013l-3.3796997 5.9969788l-4.79792 -6.760246l-2.834755 5.9969783l-4.252121 -4.906234l-2.2898026 6.21445l-4.7970734 -4.687916l-1.7440109 6.65024l-5.5611877 -4.5787563l-0.9807396 6.868559l-5.4520264 -3.9246492l-0.5449486 6.7594004z" fill-rule="evenodd"/></g></svg>
