<svg version="1.1" viewBox="0.0 0.0 179.90551181102362 179.90551181102362" fill="none" stroke="none" stroke-linecap="square" stroke-miterlimit="10" xmlns:xlink="http://www.w3.org/1999/xlink" xmlns="http://www.w3.org/2000/svg"><clipPath id="p.0"><path d="m0 0l179.90552 0l0 179.90552l-179.90552 0l0 -179.90552z" clip-rule="nonzero"/></clipPath><g clip-path="url(#p.0)"><path fill="#000000" fill-opacity="0.0" d="m0 0l179.90552 0l0 179.90552l-179.90552 0z" fill-rule="evenodd"/><path fill="#ffffff" d="m44.27551 11.932691l-0.11634827 6.2606l-5.856571 -2.9529057l0.70264435 7.55966l-6.91008 -2.7172966l1.5225449 7.559658l-7.3782063 -2.007719l2.2251873 6.969263l-7.4954643 -1.4173222l2.5760536 7.0875225l-7.2609463 -0.8269234l3.1623478 6.850998l-7.4954643 0l4.2158585 7.0875244l-7.144598 0.5904007l3.9822502 6.0240746l-6.9100804 1.1817093l4.802151 5.669285l-7.0273385 1.8903732l4.9194093 4.961548l-6.4419537 2.4798508l5.504794 4.7250137l-6.441954 3.0711746l5.973829 4.2528763l-6.559213 3.5433044l6.0901785 3.779831l-6.91008 4.7250137l6.792821 3.0711746l-5.7384024 4.7250137l7.027339 2.7172928l-5.271186 5.197151l7.027339 1.8894577l-4.4503756 5.1980667l7.027339 1.5355911l-4.0995083 6.0240784l7.379114 0.82691956l-3.7477322 6.260605l6.558304 -0.118270874l-2.9278297 5.551941l7.4954643 -0.5913086l-2.6933136 6.7336426l7.2609463 -1.063446l-2.1079273 7.4423065l7.4954643 -2.126892l-1.4052868 7.20578l6.675562 -2.4807587l-0.70264053 7.324051l6.67556 -3.0711823l0 7.4414062l7.6127243 -4.2519684l0.8199005 7.2048645l5.6220512 -4.016342l1.1716805 6.7336426l5.6211433 -4.725006l1.7570648 7.20578l5.2702713 -5.1980743l2.6942215 7.2057953l4.3331223 -5.551941l3.045082 6.4971313l4.2158585 -5.9067383l3.2796097 6.260605l3.8649902 -6.7327423l5.153015 7.2057953l3.1623535 -6.3788605l4.450371 5.6701965l2.4597092 -6.9692535l5.2702713 4.960617l1.7570648 -7.3231354l5.9729233 5.3154144l1.0544128 -7.6779175l6.090187 4.6067505l0.5853729 -7.6779175l6.324707 3.779831l-0.117263794 -6.4971313l5.9729156 3.071167l-0.8199005 -7.559662l6.91008 2.5990448l-1.4052887 -7.442322l7.0273438 2.0086365l-1.639801 -6.8519135l7.3791046 1.2999725l-2.57695 -7.0875244l7.1445923 0.47213745l-3.0450897 -6.4962006l7.2609406 0l-4.0995026 -7.0875244l7.0273438 -0.8269272l-3.8649902 -5.551941l6.676468 -1.5355835l-4.33403 -5.551941l7.0273438 -2.007721l-5.0357666 -4.96154l6.6755676 -2.716385l-5.622055 -4.4884872l6.4419556 -3.3076935l-5.9729156 -3.8980942l6.207428 -3.8980942l-5.7393036 -3.3076935l6.559204 -4.8423615l-6.559204 -3.1894302l5.3875275 -4.7250214l-6.792816 -2.5990295l5.270279 -5.3154144l-6.91008 -1.77211l4.3331146 -5.551941l-7.143692 -1.4173203l3.982254 -5.787552l-7.1445923 -0.7086601l3.8649902 -6.73365l-6.5592194 0.23652267l2.2251892 -5.551937l-6.91008 0.5913124l2.4597015 -7.0875244l-7.0273285 1.4173241l1.9915771 -7.324051l-7.37912 2.0086346l1.1716766 -7.2057858l-6.6755676 2.48077l0.5853882 -7.2057877l-6.324692 3.071169l-0.117263794 -7.559659l-7.6127167 4.48849l-0.5853882 -7.0875235l-5.9729156 4.134618l-1.0544205 -7.087524l-5.5047913 4.4884906l-1.7561569 -7.2048707l-5.5047913 5.551023l-2.5769653 -7.0866075l-4.5676346 5.551023l-2.8105698 -6.2596836l-4.09951 5.669286l-3.6304703 -6.142338l-3.630478 6.4971266l-5.153923 -7.32405l-3.0450897 6.497126l-4.5676346 -5.315414l-2.4597092 6.7327356l-5.153015 -5.078888l-1.8734131 7.20487l-5.9738274 -4.960625l-1.0535088 7.441396l-5.856571 -4.2519646l-0.58538437 7.3231335z" fill-rule="evenodd"/><path fill="#000000" d="m47.431953 17.934011l-0.108314514 5.7786617l-5.45203 -2.7255917l0.65410995 6.9777164l-6.43277 -2.5081196l1.4173775 6.9777164l-6.868561 -1.8531647l2.0714836 6.43277l-6.9777164 -1.3082161l2.3981133 6.5419273l-6.7593994 -0.7632675l2.9439106 6.3236084l-6.9777184 0l3.9246502 6.5419273l-6.6510878 0.5449486l3.7071772 5.5603447l-6.432769 1.090744l4.4704447 5.232868l-6.5419273 1.7448502l4.5796022 4.579605l-5.996978 2.2889557l5.124552 4.3612823l-5.9969783 2.8347473l5.561188 3.925499l-6.1061373 3.2705383l5.6695013 3.488861l-6.4327683 4.3612823l6.323609 2.834755l-5.342024 4.3612823l6.5419273 2.5081177l-4.9070797 4.7970734l6.5419273 1.7440109l-4.142967 4.79792l6.5419283 1.4173737l-3.8163366 5.560341l6.869405 0.7632675l-3.4888592 5.7786636l6.1052914 -0.10916138l-2.7255917 5.1245575l6.9777184 -0.5457916l-2.5072746 6.2152863l6.7594013 -0.98158264l-1.962326 6.8694l6.9777164 -1.9631653l-1.3082161 6.6510925l6.214451 -2.2898102l-0.65410614 6.760254l6.214451 -2.8347626l0 6.868561l7.086876 -3.924652l0.7632675 6.6502533l5.2337112 -3.7071838l1.090744 6.2153015l5.2328644 -4.3612823l1.6356964 6.6510773l4.9062347 -4.7979126l2.5081177 6.6510773l4.033806 -5.124542l2.834755 5.9969788l3.9246445 -5.4520416l3.05307 5.7786713l3.5980148 -6.2144623l4.797081 6.6510925l2.9439087 -5.8878174l4.142967 5.2337036l2.2898026 -6.43277l4.906227 4.578766l1.6356964 -6.7593994l5.560341 4.9062347l0.9815903 -7.0868835l5.6694946 4.252136l0.5449524 -7.0868835l5.8878174 3.488861l-0.10916138 -5.9969788l5.5603485 2.8347473l-0.76327515 -6.977722l6.43277 2.3989716l-1.3082123 -6.8694153l6.541931 1.8540192l-1.526535 -6.324463l6.8694 1.1999054l-2.3989563 -6.541916l6.6510925 0.43577576l-2.8347626 -5.9961243l6.7593994 0l-3.81633 -6.541931l6.541931 -0.7632675l-3.5980225 -5.12455l6.2153015 -1.4173737l-4.0346527 -5.12455l6.541916 -1.8531647l-4.687912 -4.579605l6.214447 -2.5072784l-5.2337036 -4.142967l5.9969788 -3.0530624l-5.5603485 -3.5980225l5.778656 -3.5980148l-5.342865 -3.05307l6.10614 -4.469597l-6.10614 -2.9439087l5.015396 -4.36129l-6.3236084 -2.3989563l4.9062347 -4.9062347l-6.43277 -1.6356964l4.0338135 -5.12455l-6.6502533 -1.3082161l3.7071838 -5.3420258l-6.6510925 -0.65410614l3.5980225 -6.2152977l-6.10614 0.21831894l2.0714874 -5.1245537l-6.43277 0.54579544l2.289795 -6.5419273l-6.541916 1.3082161l1.8540039 -6.7602444l-6.8694 1.8540096l1.090744 -6.651085l-6.214447 2.2898006l0.54493713 -6.651087l-5.8878174 2.8347511l-0.10916138 -6.9777164l-7.0868683 4.1429653l-0.5449524 -6.5419264l-5.560341 3.8163347l-0.98158264 -6.5419264l-5.1245575 4.1429663l-1.6348419 -6.65024l-5.1245575 5.123706l-2.3989563 -6.5410814l-4.2521286 5.123706l-2.6164322 -5.777814l-3.8163376 5.2328653l-3.3796997 -5.669502l-3.3796997 5.9969783l-4.79792 -6.7602453l-2.8347473 5.9969788l-4.2521286 -4.9062347l-2.2898026 6.214451l-4.7970734 -4.687916l-1.7440033 6.65024l-5.5611916 -4.5787563l-0.9807396 6.868559l-5.45203 -3.9246492l-0.5449486 6.7593985z" fill-rule="evenodd"/><path fill="#ffffff" d="m158.49606 92.11024l0 0c0 -15.750992 -12.768692 -28.519688 -28.519684 -28.519688l0 0c-7.5638885 0 -14.817986 3.0047493 -20.166466 8.353222c-5.34848 5.34848 -8.353218 12.602577 -8.353218 20.166466l0 0c0 15.750984 12.768692 28.519684 28.519684 28.519684l0 0c15.750992 0 28.519684 -12.7687 28.519684 -28.519684z" fill-rule="evenodd"/><path stroke="#ffffff" stroke-width="1.0" stroke-linejoin="round" stroke-linecap="butt" d="m158.49606 92.11024l0 0c0 -15.750992 -12.768692 -28.519688 -28.519684 -28.519688l0 0c-7.5638885 0 -14.817986 3.0047493 -20.166466 8.353222c-5.34848 5.34848 -8.353218 12.602577 -8.353218 20.166466l0 0c0 15.750984 12.768692 28.519684 28.519684 28.519684l0 0c15.750992 0 28.519684 -12.7687 28.519684 -28.519684z" fill-rule="evenodd"/><path fill="#000000" d="m148.06154 107.126144l0 0c0 -5.548935 -4.4983063 -10.047241 -10.047256 -10.047241l0 0c-2.664688 0 -5.2202454 1.058548 -7.1044617 2.942772c-1.8842316 1.8842239 -2.9427795 4.4397736 -2.9427795 7.1044693l0 0c0 5.5489426 4.4983063 10.047249 10.047241 10.047249l0 0c5.54895 0 10.047256 -4.4983063 10.047256 -10.047249z" fill-rule="evenodd"/><path stroke="#000000" stroke-width="1.0" stroke-linejoin="round" stroke-linecap="butt" d="m148.06154 107.126144l0 0c0 -5.548935 -4.4983063 -10.047241 -10.047256 -10.047241l0 0c-2.664688 0 -5.2202454 1.058548 -7.1044617 2.942772c-1.8842316 1.8842239 -2.9427795 4.4397736 -2.9427795 7.1044693l0 0c0 5.5489426 4.4983063 10.047249 10.047241 10.047249l0 0c5.54895 0 10.047256 -4.4983063 10.047256 -10.047249z" fill-rule="evenodd"/><path fill="#ffffff" d="m103.485565 125.82415l0 0c0 -15.750992 -12.7687 -28.519691 -28.519684 -28.519691l0 0c-7.563896 0 -14.817986 3.0047455 -20.166466 8.353226c-5.3484764 5.34848 -8.353222 12.60257 -8.353222 20.166466l0 0c0 15.750984 12.7687 28.519676 28.519688 28.519676l0 0c15.750984 0 28.519684 -12.768692 28.519684 -28.519676z" fill-rule="evenodd"/><path stroke="#ffffff" stroke-width="1.0" stroke-linejoin="round" stroke-linecap="butt" d="m103.485565 125.82415l0 0c0 -15.750992 -12.7687 -28.519691 -28.519684 -28.519691l0 0c-7.563896 0 -14.817986 3.0047455 -20.166466 8.353226c-5.3484764 5.34848 -8.353222 12.60257 -8.353222 20.166466l0 0c0 15.750984 12.7687 28.519676 28.519688 28.519676l0 0c15.750984 0 28.519684 -12.768692 28.519684 -28.519676z" fill-rule="evenodd"/><path fill="#000000" d="m98.24789 137.1104l0 0c0 -5.548935 -4.4983063 -10.047241 -10.047249 -10.047241l0 0c-2.6646957 0 -5.2202454 1.058548 -7.1044693 2.9427643c-1.8842239 1.8842316 -2.942772 4.439789 -2.942772 7.104477l0 0c0 5.548935 4.4983063 10.047241 10.047241 10.047241l0 0c5.5489426 0 10.047249 -4.4983063 10.047249 -10.047241z" fill-rule="evenodd"/><path stroke="#000000" stroke-width="1.0" stroke-linejoin="round" stroke-linecap="butt" d="m98.24789 137.1104l0 0c0 -5.548935 -4.4983063 -10.047241 -10.047249 -10.047241l0 0c-2.6646957 0 -5.2202454 1.058548 -7.1044693 2.9427643c-1.8842239 1.8842316 -2.942772 4.439789 -2.942772 7.104477l0 0c0 5.548935 4.4983063 10.047241 10.047241 10.047241l0 0c5.5489426 0 10.047249 -4.4983063 10.047249 -10.047241z" fill-rule="evenodd"/></g></svg>
