<svg version="1.1" viewBox="0.0 0.0 179.90551181102362 179.90551181102362" fill="none" stroke="none" stroke-linecap="square" stroke-miterlimit="10" xmlns:xlink="http://www.w3.org/1999/xlink" xmlns="http://www.w3.org/2000/svg"><clipPath id="p.0"><path d="m0 0l179.90552 0l0 179.90552l-179.90552 0l0 -179.90552z" clip-rule="nonzero"/></clipPath><g clip-path="url(#p.0)"><path fill="#000000" fill-opacity="0.0" d="m0 0l179.90552 0l0 179.90552l-179.90552 0z" fill-rule="evenodd"/><path fill="#000000" d="m97.81105 0.8822331l-10.94796 15.56595l-13.297783 -15.637571l-6.6872864 18.286507l-15.945934 -11.077809l-1.8021164 18.323296l-17.253183 -6.2064l3.3255596 18.9689l-19.41715 -1.6041985l8.446842 18.538479l-18.571856 3.2607002l12.095306 14.848076l-17.418228 7.9595413l15.557552 11.04377l-15.61202 13.006233l18.463116 6.8989716l-11.149183 15.6469345l18.508574 1.9148865l-6.2852325 17.051117l19.154 -3.2107086l-1.789299 19.302307l18.739613 -8.526794l3.2276917 18.960312l14.89069 -12.581543l8.249962 17.444717l10.94693 -15.56604l13.280716 15.832275l6.7043533 -18.481216l15.954414 10.980972l1.6074219 -18.340363l17.52774 6.4256287l-3.307541 -19.16249l19.593842 1.8148499l-8.92366 -18.676804l18.879517 -3.4309769l-12.024017 -14.54805l17.030792 -7.9924545l-15.460632 -11.036308l15.523682 -13.111565l-18.480194 -6.704262l11.281097 -16.026737l-18.535065 -1.6244736l6.4969177 -17.227722l-19.268845 3.395813l1.4987793 -19.32777l-18.537445 8.446934l-3.2447586 -18.765621l-14.9534 12.183657z" fill-rule="evenodd"/><path fill="#000000" fill-opacity="0.0" d="m37.014446 56.360184l105.869995 0l0 67.1837l-105.869995 0z" fill-rule="evenodd"/><path stroke="#ffffff" stroke-width="4.0" stroke-linejoin="round" stroke-linecap="butt" d="m37.014446 56.360184l105.869995 0l0 67.1837l-105.869995 0z" fill-rule="evenodd"/><path fill="#000000" fill-opacity="0.0" d="m46.21522 64.703415l44.349087 39.335953l43.79789 -39.125984" fill-rule="evenodd"/><path stroke="#ffffff" stroke-width="8.0" stroke-linejoin="round" stroke-linecap="butt" d="m46.21522 64.703415l44.349087 39.335953l43.79789 -39.125984" fill-rule="evenodd"/></g></svg>
