<svg version="1.1" viewBox="0.0 0.0 557.8582677165355 557.8582677165355" fill="none" stroke="none" stroke-linecap="square" stroke-miterlimit="10" xmlns:xlink="http://www.w3.org/1999/xlink" xmlns="http://www.w3.org/2000/svg"><clipPath id="p.0"><path d="m0 0l557.8583 0l0 557.8583l-557.8583 0l0 -557.8583z" clip-rule="nonzero"/></clipPath><g clip-path="url(#p.0)"><path fill="#000000" fill-opacity="0.0" d="m0 0l557.8583 0l0 557.8583l-557.8583 0z" fill-rule="evenodd"/><path fill="#ffffff" fill-opacity="0.4246" d="m137.27597 36.998726l-0.3607788 19.413357l-18.16047 -9.156601l2.1788025 23.441586l-21.427261 -8.42601l4.7212143 23.441582l-22.878868 -6.2256927l6.9000244 21.610832l-23.24247 -4.394943l7.988014 21.977547l-22.515259 -2.564186l9.806034 21.24411l-23.242466 0l13.07283 21.977554l-22.154474 1.8307495l12.34844 18.679916l-21.427263 3.6643524l14.890848 17.579758l-21.790867 5.8618164l15.254454 15.385147l-19.975668 7.6897125l17.069654 14.651703l-19.975668 9.523315l18.52407 13.187668l-20.339272 10.987366l18.884855 11.720795l-21.427263 14.651703l21.06366 9.523315l-17.794044 14.651703l21.790867 8.425995l-16.345264 16.115723l21.790869 5.8589783l-13.800037 16.118591l21.790867 4.7616577l-12.712044 18.679901l22.88168 2.564209l-11.621231 19.41336l20.336452 -0.36672974l-9.078823 17.215881l23.242462 -1.8335876l-8.351616 20.880249l22.515259 -3.297638l-6.536415 23.077698l23.24247 -6.5952454l-4.3576126 22.344269l20.700058 -7.692566l-2.1788101 22.710968l20.700058 -9.523315l0 23.07489l23.60608 -13.184845l2.5424042 22.3414l17.433258 -12.454224l3.6332245 20.880249l17.430435 -14.651672l5.4484253 22.344238l16.342438 -16.118591l8.354431 22.3443l13.436447 -17.215881l9.442429 20.14679l13.07283 -18.31604l10.169617 19.41333l11.984863 -20.87738l15.978821 22.3443l9.80603 -19.78009l13.800049 17.58258l7.627228 -21.61084l16.342438 15.382324l5.4484253 -22.70813l18.52124 16.482422l3.2696228 -23.808289l18.884857 14.284973l1.8152161 -23.808289l19.61206 11.720764l-0.36361694 -20.14679l18.52127 9.523315l-2.5424194 -23.441559l21.427277 8.059265l-4.3576355 -23.077698l21.790894 6.228546l-5.084839 -21.246948l22.881683 4.031067l-7.990814 -21.97757l22.15445 1.4640503l-9.442413 -20.143951l22.515228 0l-12.712006 -21.97757l21.790863 -2.5641785l-11.984863 -17.215881l20.70288 -4.7616577l-13.439209 -17.215912l21.790833 -6.2256775l-15.615234 -15.385132l20.700073 -8.423187l-17.433289 -13.918243l19.975708 -10.256775l-18.521301 -12.087494l19.248474 -12.087524l-17.796875 -10.256744l20.339294 -15.015579l-20.339294 -9.89003l16.706055 -14.651703l-21.06366 -8.059296l16.342468 -16.482452l-21.427246 -5.4950867l13.436401 -17.215897l-22.151672 -4.394943l12.34845 -17.946472l-22.15445 -2.1974792l11.984833 -20.880234l-20.339264 0.7334442l6.9000244 -17.215897l-21.427277 1.8335953l7.627228 -21.977547l-21.790863 4.394943l6.1756287 -22.71099l-22.881683 6.2285385l3.6332092 -22.344269l-20.700043 7.692566l1.8151855 -22.344265l-19.61206 9.523319l-0.36358643 -23.441578l-23.60608 13.918259l-1.8152161 -21.977549l-18.52124 12.820948l-3.2696228 -21.977549l-17.069641 13.918261l-5.4456177 -22.341423l-17.069641 17.213047l-7.9908447 -21.974707l-14.163635 17.213047l-8.71521 -19.410517l-12.712036 17.579765l-11.257629 -19.04664l-11.257629 20.146797l-15.981674 -22.710987l-9.442429 20.146797l-14.163635 -16.48245l-7.627228 20.877392l-15.978851 -15.749014l-5.809204 22.341425l-18.524063 -15.382294l-3.2668 23.074862l-18.160477 -13.184822l-1.8152008 22.708145z" fill-rule="evenodd"/><path fill="#000000" d="m198.95105 143.48329l-0.20373535 10.869034l-10.254684 -5.126541l1.2303162 13.124344l-12.09935 -4.717499l2.665924 13.124329l-12.919022 -3.4855957l3.8962402 12.09935l-13.124344 -2.460617l4.5105896 12.304672l-12.713699 -1.4356232l5.5371704 11.894028l-13.124329 0l7.381836 12.304672l-12.509979 1.0249939l6.972809 10.458405l-12.099365 2.0515747l8.408432 9.842453l-12.304657 3.2818909l8.613739 8.613739l-11.279678 4.3052826l9.638733 8.203125l-11.279671 5.331848l10.459999 7.3834534l-11.484993 6.15152l10.663734 6.5621643l-12.099358 8.203125l11.894035 5.331848l-10.047775 8.203125l12.304657 4.717499l-9.229691 9.022797l12.304672 3.2802734l-7.7924805 9.024384l12.304672 2.6659546l-7.178131 10.458405l12.920624 1.4356079l-6.5621643 10.869049l11.483398 -0.20532227l-5.1265564 9.638733l13.124344 -1.0265808l-4.715912 11.690308l12.713715 -1.8462524l-3.6909332 12.920624l13.124344 -3.692505l-2.460617 12.509979l11.688721 -4.306885l-1.2303009 12.7153015l11.688721 -5.331848l0 12.919006l13.329651 -7.381836l1.4356232 12.508392l9.844055 -6.972809l2.0515747 11.690308l9.842468 -8.2030945l3.0765533 12.509979l9.228104 -9.024384l4.717514 12.509979l7.587158 -9.638733l5.331848 11.279694l7.3818665 -10.2547l5.7424927 10.869049l6.7674866 -11.688721l9.022797 12.509979l5.5371704 -11.074371l7.7924805 9.844055l4.3068542 -12.099335l9.228119 8.612152l3.0765686 -12.713715l10.458405 9.228119l1.8462524 -13.329681l10.663727 7.9978027l1.0249939 -13.329651l11.074371 6.5621643l-0.20532227 -11.279663l10.458405 5.331848l-1.4356079 -13.124329l12.099335 4.5121765l-2.4606018 -12.920624l12.304657 3.4872131l-2.8712463 -11.89563l12.920624 2.256897l-4.512207 -12.3046875l12.51001 0.81967163l-5.3318787 -11.278076l12.713715 0l-7.178131 -12.304657l12.3046875 -1.4356384l-6.7674866 -9.638733l11.690308 -2.665924l-7.5887756 -9.638733l12.3046875 -3.4856262l-8.817474 -8.613739l11.688721 -4.715912l-9.844055 -7.7924805l11.279663 -5.7424927l-10.458405 -6.7674866l10.869049 -6.7674866l-10.049377 -5.7424927l11.484985 -8.40683l-11.484985 -5.537201l9.433411 -8.20311l-11.894012 -4.5121765l9.228088 -9.228104l-12.099335 -3.0765686l7.587158 -9.638733l-12.508392 -2.460617l6.972809 -10.047775l-12.51001 -1.2303162l6.7674866 -11.690308l-11.484985 0.41062927l3.8962402 -9.638733l-12.099335 1.0265808l4.3068542 -12.304657l-12.304657 2.460617l3.4871826 -12.7153015l-12.920593 3.4871979l2.0515747 -12.5099945l-11.688721 4.3068695l1.0249939 -12.509979l-11.074371 5.3318634l-0.20532227 -13.124344l-13.329651 7.7924805l-1.0249939 -12.304672l-10.458405 7.178131l-1.8462524 -12.304672l-9.638733 7.7924805l-3.0749817 -12.508392l-9.638733 9.637146l-4.512207 -12.303078l-7.997772 9.637138l-4.921234 -10.867447l-7.178131 9.842453l-6.356842 -10.663719l-6.3568726 11.279671l-9.024384 -12.715294l-5.331848 11.279671l-7.9978027 -9.228096l-4.3068695 11.688713l-9.022781 -8.817467l-3.2802887 12.508385l-10.460007 -8.612152l-1.8446655 12.919037l-10.254684 -7.381851l-1.0249939 12.713715z" fill-rule="evenodd"/></g></svg>
