<svg version="1.1" viewBox="0.0 0.0 179.90551181102362 179.90551181102362" fill="none" stroke="none" stroke-linecap="square" stroke-miterlimit="10" xmlns:xlink="http://www.w3.org/1999/xlink" xmlns="http://www.w3.org/2000/svg"><clipPath id="p.0"><path d="m0 0l179.90552 0l0 179.90552l-179.90552 0l0 -179.90552z" clip-rule="nonzero"/></clipPath><g clip-path="url(#p.0)"><path fill="#000000" fill-opacity="0.0" d="m0 0l179.90552 0l0 179.90552l-179.90552 0z" fill-rule="evenodd"/><path fill="#000000" d="m90.008835 0l-9.547005 16.462168l-14.612122 -14.416677l-5.0651245 18.800316l-16.852032 -9.643176l-0.19544983 18.41045l-17.728966 -4.6762943l4.9689503 18.6059l-19.482834 0.09720993l10.03304 17.73l-18.216038 4.8696747l13.345327 13.735191l-16.656582 9.449791l16.462168 9.643181l-14.416677 14.319466l18.99473 5.2605743l-9.740383 16.560417l18.604866 0.29161072l-4.7724667 17.534561l18.800316 -4.8707123l-0.09720993 19.384598l17.923382 -10.130249l4.8707085 18.605896l13.735191 -13.833435l9.741417 16.657623l9.545967 -16.462173l14.612129 14.612122l5.0651245 -18.995758l16.852028 9.545975l0 -18.410461l18.021622 4.8707123l-4.967911 -18.800308l19.677246 0.09719849l-10.520111 -17.826172l18.50766 -5.0661545l-13.248123 -13.442535l16.267761 -9.448761l-16.36496 -9.644211l14.319458 -14.416679l-18.99472 -5.0651245l9.838623 -16.950272l-18.605896 0l4.967911 -17.728966l-18.89856 5.0651226l-0.19441223 -19.384594l-17.728966 10.03304l-4.8707123 -18.410452l-13.832397 13.442535z" fill-rule="evenodd"/><path fill="#000000" fill-opacity="0.0" d="m59.74275 88.2079l0 44.56996l60.424603 0l0 -44.56996" fill-rule="evenodd"/><path stroke="#ffffff" stroke-width="4.0" stroke-linejoin="round" stroke-linecap="butt" d="m59.74275 88.2079l0 44.56996l60.424603 0l0 -44.56996" fill-rule="evenodd"/><path fill="#000000" fill-opacity="0.0" d="m44.802746 84.07279l45.7719 -43.48281l44.528122 42.30098" fill-rule="evenodd"/><path stroke="#ffffff" stroke-width="8.0" stroke-linejoin="round" stroke-linecap="butt" d="m44.802746 84.07279l45.7719 -43.48281l44.528122 42.30098" fill-rule="evenodd"/></g></svg>
