<svg version="1.1" viewBox="0.0 0.0 179.90551181102362 179.90551181102362" fill="none" stroke="none" stroke-linecap="square" stroke-miterlimit="10" xmlns:xlink="http://www.w3.org/1999/xlink" xmlns="http://www.w3.org/2000/svg"><clipPath id="p.0"><path d="m0 0l179.90552 0l0 179.90552l-179.90552 0l0 -179.90552z" clip-rule="nonzero"/></clipPath><g clip-path="url(#p.0)"><path fill="#000000" fill-opacity="0.0" d="m0 0l179.90552 0l0 179.90552l-179.90552 0z" fill-rule="evenodd"/><path fill="#000000" d="m90.008835 0l-9.547005 16.462168l-14.612122 -14.416677l-5.0651245 18.800316l-16.852032 -9.643176l-0.19544983 18.41045l-17.728966 -4.6762943l4.9689503 18.6059l-19.482834 0.09720993l10.03304 17.73l-18.216038 4.8696747l13.345327 13.735191l-16.656582 9.449791l16.462168 9.643181l-14.416677 14.319466l18.99473 5.2605743l-9.740383 16.560417l18.604866 0.29161072l-4.7724667 17.534561l18.800316 -4.8707123l-0.09720993 19.384598l17.923382 -10.130249l4.8707085 18.605896l13.735191 -13.833435l9.741417 16.657623l9.545967 -16.462173l14.612129 14.612122l5.0651245 -18.995758l16.852028 9.545975l0 -18.410461l18.021622 4.8707123l-4.967911 -18.800308l19.677246 0.09719849l-10.520111 -17.826172l18.50766 -5.0661545l-13.248123 -13.442535l16.267761 -9.448761l-16.36496 -9.644211l14.319458 -14.416679l-18.99472 -5.0651245l9.838623 -16.950272l-18.605896 0l4.967911 -17.728966l-18.89856 5.0651226l-0.19441223 -19.384594l-17.728966 10.03304l-4.8707123 -18.410452l-13.832397 13.442535z" fill-rule="evenodd"/><path fill="#000000" fill-opacity="0.0" d="m123.48899 139.02022l-66.55999 -66.711555" fill-rule="evenodd"/><path stroke="#ffffff" stroke-width="8.0" stroke-linejoin="round" stroke-linecap="butt" d="m123.48899 139.02022l-66.55999 -66.711555" fill-rule="evenodd"/><path fill="#000000" fill-opacity="0.0" d="m90.088974 58.527264l0 73.1884" fill-rule="evenodd"/><path stroke="#ffffff" stroke-width="4.0" stroke-linejoin="round" stroke-linecap="butt" d="m90.088974 58.527264l0 73.1884" fill-rule="evenodd"/><path fill="#000000" fill-opacity="0.0" d="m123.460075 72.32468l-66.56 66.71156" fill-rule="evenodd"/><path stroke="#ffffff" stroke-width="8.0" stroke-linejoin="round" stroke-linecap="butt" d="m123.460075 72.32468l-66.56 66.71156" fill-rule="evenodd"/><path fill="#000000" fill-opacity="0.0" d="m137.30568 105.70943l-94.25284 0" fill-rule="evenodd"/><path stroke="#ffffff" stroke-width="4.0" stroke-linejoin="round" stroke-linecap="butt" d="m137.30568 105.70943l-94.25284 0" fill-rule="evenodd"/><path fill="#000000" d="m89.91388 72.05032l-3.5256042 6.0751266l-5.396103 -5.3202667l-1.8704987 6.9379883l-6.223274 -3.5586777l-0.07217407 6.794113l-6.547119 -1.7257233l1.8349762 6.8662415l-7.1948013 0.035873413l3.7050934 6.5429993l-6.726986 1.797081l4.9282875 5.068779l-6.1511 3.4873047l6.0793037 3.5586777l-5.323925 5.2843933l7.0145493 1.9413376l-3.5970154 6.1113815l6.870575 0.10762024l-1.7624207 6.4708633l6.9427567 -1.7974625l-0.0358963 7.1536026l6.6189117 -3.7384186l1.7986984 6.8662415l5.0722656 -5.1050262l3.5973969 6.1472473l3.5252304 -6.075119l5.3960953 5.392395l1.8704987 -7.0101166l6.223274 3.5227966l0 -6.7941055l6.655197 1.7974625l-1.8346024 -6.9379807l7.2666016 0.035873413l-3.884964 -6.578491l6.8346786 -1.8695984l-4.8923874 -4.9607697l6.0075073 -3.4869308l-6.0434036 -3.5590515l5.288025 -5.3202667l-7.0145493 -1.8692093l3.6332932 -6.2552567l-6.8709564 0l1.8345947 -6.542618l-6.9790344 1.8692093l-0.0717926 -7.1536026l-6.547119 3.7025452l-1.7986984 -6.7941055l-5.108162 4.9607697z" fill-rule="evenodd"/><path stroke="#ffffff" stroke-width="4.0" stroke-linejoin="round" stroke-linecap="butt" d="m89.91388 72.05032l-3.5256042 6.0751266l-5.396103 -5.3202667l-1.8704987 6.9379883l-6.223274 -3.5586777l-0.07217407 6.794113l-6.547119 -1.7257233l1.8349762 6.8662415l-7.1948013 0.035873413l3.7050934 6.5429993l-6.726986 1.797081l4.9282875 5.068779l-6.1511 3.4873047l6.0793037 3.5586777l-5.323925 5.2843933l7.0145493 1.9413376l-3.5970154 6.1113815l6.870575 0.10762024l-1.7624207 6.4708633l6.9427567 -1.7974625l-0.0358963 7.1536026l6.6189117 -3.7384186l1.7986984 6.8662415l5.0722656 -5.1050262l3.5973969 6.1472473l3.5252304 -6.075119l5.3960953 5.392395l1.8704987 -7.0101166l6.223274 3.5227966l0 -6.7941055l6.655197 1.7974625l-1.8346024 -6.9379807l7.2666016 0.035873413l-3.884964 -6.578491l6.8346786 -1.8695984l-4.8923874 -4.9607697l6.0075073 -3.4869308l-6.0434036 -3.5590515l5.288025 -5.3202667l-7.0145493 -1.8692093l3.6332932 -6.2552567l-6.8709564 0l1.8345947 -6.542618l-6.9790344 1.8692093l-0.0717926 -7.1536026l-6.547119 3.7025452l-1.7986984 -6.7941055l-5.108162 4.9607697z" fill-rule="evenodd"/><path fill="#000000" d="m81.65944 29.665277l0 5.846388l-5.7203293 0l2.9919128 5.204151l-5.0858 2.948803l5.073784 2.9417496l-3.0887299 5.3726463l5.8797913 0l0 5.749153l5.2798157 -3.0612564l2.914299 5.069248l2.8948975 -5.03529l5.2620773 3.0510483l0 -5.87014l5.771141 0l-3.0137177 -5.2421913l5.12368 -2.9706993l-5.005974 -2.9024124l3.0495605 -5.3047256l-5.82325 0l0 -5.7964725l-5.291641 3.068121l-2.9176254 -5.075184l-2.9379501 5.110256z" fill-rule="evenodd"/><path stroke="#ffffff" stroke-width="4.0" stroke-linejoin="round" stroke-linecap="butt" d="m81.65944 29.665277l0 5.846388l-5.7203293 0l2.9919128 5.204151l-5.0858 2.948803l5.073784 2.9417496l-3.0887299 5.3726463l5.8797913 0l0 5.749153l5.2798157 -3.0612564l2.914299 5.069248l2.8948975 -5.03529l5.2620773 3.0510483l0 -5.87014l5.771141 0l-3.0137177 -5.2421913l5.12368 -2.9706993l-5.005974 -2.9024124l3.0495605 -5.3047256l-5.82325 0l0 -5.7964725l-5.291641 3.068121l-2.9176254 -5.075184l-2.9379501 5.110256z" fill-rule="evenodd"/></g></svg>
