<svg version="1.1" viewBox="0.0 0.0 179.90551181102362 179.90551181102362" fill="none" stroke="none" stroke-linecap="square" stroke-miterlimit="10" xmlns:xlink="http://www.w3.org/1999/xlink" xmlns="http://www.w3.org/2000/svg"><clipPath id="p.0"><path d="m0 0l179.90552 0l0 179.90552l-179.90552 0l0 -179.90552z" clip-rule="nonzero"/></clipPath><g clip-path="url(#p.0)"><path fill="#000000" fill-opacity="0.0" d="m0 0l179.90552 0l0 179.90552l-179.90552 0z" fill-rule="evenodd"/><path fill="#000000" d="m97.81105 0.8822331l-10.94796 15.56595l-13.297783 -15.637571l-6.6872864 18.286507l-15.945934 -11.077809l-1.8021164 18.323296l-17.253183 -6.2064l3.3255596 18.9689l-19.41715 -1.6041985l8.446842 18.538479l-18.571856 3.2607002l12.095306 14.848076l-17.418228 7.9595413l15.557552 11.04377l-15.61202 13.006233l18.463116 6.8989716l-11.149183 15.6469345l18.508574 1.9148865l-6.2852325 17.051117l19.154 -3.2107086l-1.789299 19.302307l18.739613 -8.526794l3.2276917 18.960312l14.89069 -12.581543l8.249962 17.444717l10.94693 -15.56604l13.280716 15.832275l6.7043533 -18.481216l15.954414 10.980972l1.6074219 -18.340363l17.52774 6.4256287l-3.307541 -19.16249l19.593842 1.8148499l-8.92366 -18.676804l18.879517 -3.4309769l-12.024017 -14.54805l17.030792 -7.9924545l-15.460632 -11.036308l15.523682 -13.111565l-18.480194 -6.704262l11.281097 -16.026737l-18.535065 -1.6244736l6.4969177 -17.227722l-19.268845 3.395813l1.4987793 -19.32777l-18.537445 8.446934l-3.2447586 -18.765621l-14.9534 12.183657z" fill-rule="evenodd"/><path fill="#000000" fill-opacity="0.0" d="m25.981396 90.17903c-0.5812149 -10.031937 39.350895 -29.307526 60.82455 -29.75853c21.473663 -0.45100784 67.436195 17.020561 68.01742 27.05249c0.5812073 10.031937 -43.056465 32.688103 -64.53012 33.139107c-21.473663 0.45101166 -63.730633 -20.401138 -64.311844 -30.433067z" fill-rule="evenodd"/><path stroke="#ffffff" stroke-width="4.0" stroke-linejoin="round" stroke-linecap="butt" d="m25.981396 90.17903c-0.5812149 -10.031937 39.350895 -29.307526 60.82455 -29.75853c21.473663 -0.45100784 67.436195 17.020561 68.01742 27.05249c0.5812073 10.031937 -43.056465 32.688103 -64.53012 33.139107c-21.473663 0.45101166 -63.730633 -20.401138 -64.311844 -30.433067z" fill-rule="evenodd"/><path fill="#ffffff" d="m73.70543 90.44007l0 0c0 -8.25383 6.6910553 -14.944885 14.944885 -14.944885l0 0c3.963623 0 7.7649155 1.5745468 10.567627 4.3772583c2.8027039 2.8027039 4.3772507 6.6039963 4.3772507 10.567627l0 0c0 8.25383 -6.6910477 14.944878 -14.944878 14.944878l0 0c-8.25383 0 -14.944885 -6.6910477 -14.944885 -14.944878z" fill-rule="evenodd"/><path stroke="#ffffff" stroke-width="16.0" stroke-linejoin="round" stroke-linecap="butt" d="m73.70543 90.44007l0 0c0 -8.25383 6.6910553 -14.944885 14.944885 -14.944885l0 0c3.963623 0 7.7649155 1.5745468 10.567627 4.3772583c2.8027039 2.8027039 4.3772507 6.6039963 4.3772507 10.567627l0 0c0 8.25383 -6.6910477 14.944878 -14.944878 14.944878l0 0c-8.25383 0 -14.944885 -6.6910477 -14.944885 -14.944878z" fill-rule="evenodd"/><path fill="#000000" d="m88.88805 85.540695l-0.5209656 0.8983154l-0.7973633 -0.7866974l-0.2763977 1.0259018l-0.9195862 -0.5262146l-0.010665894 1.004631l-0.9674454 -0.25517273l0.27114868 1.0152969l-1.0631485 0.005302429l0.54748535 0.9674988l-0.99401855 0.2657318l0.72823334 0.7495117l-0.9089279 0.5156555l0.8983154 0.5262146l-0.7866974 0.78139496l1.0365143 0.2870636l-0.531517 0.9036789l1.0152435 0.015907288l-0.26042938 0.9568405l1.0259094 -0.26579285l-0.0053100586 1.0577927l0.97805786 -0.5527954l0.26578522 1.0152969l0.7495117 -0.75486755l0.53157043 0.9089813l0.5209122 -0.8983154l0.7973633 0.7973633l0.27639008 -1.0365753l0.9195938 0.5209122l0 -1.004631l0.9834137 0.26578522l-0.27109528 -1.0259018l1.073761 0.005302429l-0.57406616 -0.9727478l1.0099335 -0.2764511l-0.7229309 -0.7335434l0.8877106 -0.5156021l-0.893013 -0.52627563l0.78139496 -0.7866974l-1.0365143 -0.27639008l0.5368805 -0.9249573l-1.0152969 0l0.27108765 -0.96743774l-1.0312653 0.27639008l-0.010612488 -1.057785l-0.96743774 0.54748535l-0.26579285 -1.004631l-0.75481415 0.7335434z" fill-rule="evenodd"/><path stroke="#000000" stroke-width="1.0" stroke-linejoin="round" stroke-linecap="butt" d="m88.88805 85.540695l-0.5209656 0.8983154l-0.7973633 -0.7866974l-0.2763977 1.0259018l-0.9195862 -0.5262146l-0.010665894 1.004631l-0.9674454 -0.25517273l0.27114868 1.0152969l-1.0631485 0.005302429l0.54748535 0.9674988l-0.99401855 0.2657318l0.72823334 0.7495117l-0.9089279 0.5156555l0.8983154 0.5262146l-0.7866974 0.78139496l1.0365143 0.2870636l-0.531517 0.9036789l1.0152435 0.015907288l-0.26042938 0.9568405l1.0259094 -0.26579285l-0.0053100586 1.0577927l0.97805786 -0.5527954l0.26578522 1.0152969l0.7495117 -0.75486755l0.53157043 0.9089813l0.5209122 -0.8983154l0.7973633 0.7973633l0.27639008 -1.0365753l0.9195938 0.5209122l0 -1.004631l0.9834137 0.26578522l-0.27109528 -1.0259018l1.073761 0.005302429l-0.57406616 -0.9727478l1.0099335 -0.2764511l-0.7229309 -0.7335434l0.8877106 -0.5156021l-0.893013 -0.52627563l0.78139496 -0.7866974l-1.0365143 -0.27639008l0.5368805 -0.9249573l-1.0152969 0l0.27108765 -0.96743774l-1.0312653 0.27639008l-0.010612488 -1.057785l-0.96743774 0.54748535l-0.26579285 -1.004631l-0.75481415 0.7335434z" fill-rule="evenodd"/></g></svg>
