<svg version="1.1" viewBox="0.0 0.0 32.0 32.0" fill="none" stroke="none" stroke-linecap="square" stroke-miterlimit="10" xmlns:xlink="http://www.w3.org/1999/xlink" xmlns="http://www.w3.org/2000/svg"><clipPath id="p.0"><path d="m0 0l32.0 0l0 32.0l-32.0 0l0 -32.0z" clip-rule="nonzero"/></clipPath><g clip-path="url(#p.0)"><path fill="#000000" fill-opacity="0.0" d="m0 0l32.0 0l0 32.0l-32.0 0z" fill-rule="evenodd"/><path fill="#000000" d="m16.014263 0l-1.6985922 2.9289289l-2.5997715 -2.5649977l-0.90118027 3.3449292l-2.9982934 -1.7157022l-0.034773827 3.2755651l-3.154316 -0.83200073l0.88406944 3.310339l-3.4663622 0.01729536l1.7850661 3.1544995l-3.240975 0.86640644l2.3743844 2.4437494l-2.9635189 1.6812954l2.9289289 1.715703l-2.5649977 2.5477028l3.3795192 0.93595314l-1.7329972 2.9464092l3.3101554 0.051883698l-0.84911156 3.1197262l3.3449287 -0.8665905l-0.017294884 3.448883l3.1889062 -1.8023605l0.8665905 3.310339l2.4437485 -2.4612274l1.733181 2.9637032l1.6984081 -2.9289284l2.5997715 2.5997715l0.90118027 -3.3797035l2.998293 1.6984062l0 -3.2755642l3.2063847 0.8665905l-0.88388634 -3.3449287l3.5009537 0.01729393l-1.8717251 -3.1716099l3.29286 -0.9013653l-2.35709 -2.3916798l2.8943367 -1.6811123l-2.9116325 -1.7158861l2.5477028 -2.5649977l-3.3795185 -0.90118027l1.7504749 -3.0157719l-3.310339 0l0.88388634 -3.154316l-3.3624077 0.90118074l-0.034589767 -3.4488833l-3.154316 1.7850661l-0.8665905 -3.2755651l-2.4610443 2.3916795z" fill-rule="evenodd"/><path fill="#ffffff" d="m21.804342 14.51077c0.021211624 0.060837746 0.001909256 0.19733143 0.029834747 0.32161236c0.027925491 0.12428188 0.07599068 0.28429794 0.13772011 0.42407703c0.061727524 0.13977814 0.13238716 0.27791786 0.23265076 0.41459465c0.1002655 0.13667774 0.24810791 0.29526615 0.36893654 0.40546703c0.12082863 0.11020279 0.21639633 0.1818428 0.35603523 0.25574303c0.1396389 0.07390213 0.3217926 0.14781952 0.481802 0.18766785c0.16000748 0.03984642 0.32212067 0.05270195 0.4782505 0.051412582c0.15612793 -0.0012874603 0.32102966 -0.030759811 0.4585228 -0.05914688c0.13749123 -0.02838707 0.2534008 -0.0681591 0.36642838 -0.11117363c0.11302757 -0.043014526 0.20778656 -0.08526039 0.31173897 -0.14691544c0.10395241 -0.061655045 0.20615196 -0.13313484 0.31197548 -0.22301483c0.10582352 -0.089879036 0.21792603 -0.18977165 0.32296562 -0.3162651c0.105041504 -0.1264925 0.25065804 -0.3476658 0.30727577 -0.4426899c0.056619644 -0.09502506 0.0544281 -0.10730934 0.032440186 -0.12745571c-0.021989822 -0.02014637 -0.11894226 0.009871483 -0.16436958 0.0065755844c-0.045427322 -0.0032958984 -0.06637001 -0.01101017 -0.10819626 -0.026349068c-0.04182625 -0.015339851 -0.069625854 -0.023004532 -0.14276505 -0.065686226c-0.07313728 -0.042681694 -0.18454552 -0.0937376 -0.29606438 -0.19040298c-0.11151886 -0.096666336 -0.25162888 -0.25034142 -0.37304878 -0.3895893c-0.12141991 -0.13924885 -0.22916222 -0.30500412 -0.35546875 -0.44590378c-0.12630653 -0.1408987 -0.28310013 -0.29154968 -0.40236855 -0.39949226c-0.11926651 -0.10794258 -0.20986557 -0.1842556 -0.31323814 -0.24816322c-0.10337067 -0.06390667 -0.19283104 -0.10117626 -0.30698967 -0.13527966c-0.11415672 -0.03410244 -0.2572708 -0.06303024 -0.37795448 -0.0693388c-0.12068367 -0.006307602 -0.23405266 0.00258255 -0.34614944 0.031493187c-0.11209679 0.028909683 -0.22939873 0.0866127 -0.326437 0.14196968c-0.09703636 0.05535698 -0.18206596 0.113630295 -0.255785 0.1901722c-0.073719025 0.0765419 -0.1963749 0.20747375 -0.18652534 0.26908016c0.009847641 0.06160736 0.1472969 0.058566093 0.2456131 0.100562096c0.09831619 0.041996002 0.21245384 0.07613182 0.34428787 0.15141392c0.13183403 0.0752821 0.3142643 0.2022934 0.4467144 0.30028057c0.1324501 0.09798622 0.23978615 0.19671822 0.34799004 0.28763866c0.10820389 0.090919495 0.20257568 0.18174458 0.3012352 0.25787926c0.098659515 0.076135635 0.20068169 0.14531612 0.29071808 0.19893074c0.090034485 0.053614616 0.17921638 0.08968544 0.24949455 0.12275505c0.07027817 0.033068657 0.093860626 0.049100876 0.17217445 0.075657845c0.07831383 0.026556969 0.21870804 0.06612301 0.2977047 0.08368111c0.07899666 0.017558098 0.21503639 0.019816399 0.17627716 0.02166748c-0.03875923 0.0018510818 -0.2757187 0.007461548 -0.40883446 -0.010561943c-0.13311577 -0.018024445 -0.2508316 -0.046401024 -0.38986397 -0.09758282c-0.13903236 -0.05118084 -0.3155918 -0.13873196 -0.44433212 -0.20950508c-0.1287384 -0.070773125 -0.17162704 -0.11130428 -0.32810593 -0.21513462c-0.15647888 -0.10383034 -0.44181633 -0.3049841 -0.61076736 -0.4078474c-0.16895103 -0.10286331 -0.2663784 -0.1462946 -0.40293503 -0.20933247c-0.13655663 -0.06303787 -0.23014832 -0.11726475 -0.41640282 -0.16889668c-0.1862545 -0.051631927 -0.5686703 -0.19750786 -0.7011261 -0.1408968c-0.13245583 0.05661106 -0.17552948 0.39508247 -0.093608856 0.4805622c0.08191872 0.08547878 0.47136688 0.019691467 0.58512497 0.032312393c0.11375809 0.01262188 0.076215744 -0.017420769 0.09742546 0.04341793z" fill-rule="evenodd"/><path fill="#ffffff" d="m16.72654 14.551122c-0.0048274994 0.069314 0.05406189 0.20594883 0.060256958 0.34319687c0.0061969757 0.13724804 0.0015506744 0.31737614 -0.02308464 0.48029423c-0.024637222 0.16291714 -0.0590477 0.32664776 -0.12473297 0.4972105c-0.065683365 0.17056179 -0.17473602 0.37735653 -0.26937675 0.52616215c-0.094638824 0.14880371 -0.1739006 0.25034142 -0.29846 0.3666687c-0.12455654 0.116327286 -0.29342365 0.24466515 -0.44888592 0.3312912c-0.15546322 0.086624146 -0.32078552 0.14574814 -0.48388958 0.18845749c-0.1631031 0.042711258 -0.34335613 0.058561325 -0.49473095 0.067806244c-0.15137577 0.009244919 -0.28348827 5.493164E-4 -0.4135189 -0.012334824c-0.13003063 -0.012886047 -0.2407999 -0.030122757 -0.36666584 -0.06497002c-0.12586594 -0.034849167 -0.25269508 -0.08041954 -0.38852882 -0.14411926c-0.13583374 -0.06370163 -0.28105545 -0.13605309 -0.42647266 -0.2380848c-0.14541721 -0.102033615 -0.36002254 -0.29117584 -0.44603062 -0.37411308c-0.08600807 -0.08293915 -0.08721256 -0.0963459 -0.07001591 -0.123521805c0.017196655 -0.027173996 0.12678051 -0.023283005 0.17319393 -0.039531708c0.046414375 -0.016248703 0.06605053 -0.030187607 0.10529041 -0.057956696c0.039239883 -0.027767181 0.06604004 -0.043590546 0.13014984 -0.10865593c0.0641098 -0.06506348 0.16572952 -0.14964485 0.25450993 -0.28173256c0.08878136 -0.13208866 0.19116974 -0.33158684 0.2781744 -0.5107956c0.08700466 -0.1792078 0.15222454 -0.3821478 0.24385357 -0.5644531c0.09162903 -0.18230438 0.21226597 -0.38336182 0.3059206 -0.5293751c0.09365463 -0.14601326 0.1664114 -0.25101376 0.2560053 -0.34670353c0.08959293 -0.09568977 0.17225361 -0.15972614 0.28155613 -0.22743511c0.10930157 -0.06770897 0.25025654 -0.13820171 0.3742571 -0.1788187c0.12400055 -0.040617943 0.24469185 -0.06335068 0.3697462 -0.06488609c0.12505436 -0.0015354156 0.26371193 0.025432587 0.38057995 0.05567646c0.11686897 0.03024292 0.22205162 0.06690979 0.32063293 0.12578583c0.098581314 0.058875084 0.26361847 0.1605587 0.27085495 0.22746658c0.0072345734 0.06690693 -0.13689613 0.1025238 -0.2274456 0.1739788c-0.090548515 0.071455956 -0.19982052 0.13919258 -0.31585026 0.25475407c-0.11602974 0.115561485 -0.2701025 0.29924583 -0.38032627 0.43861485c-0.11022377 0.13936901 -0.19405556 0.2724285 -0.2810135 0.39760017c-0.08695793 0.12517166 -0.15952587 0.2463417 -0.2407341 0.35343075c-0.08120823 0.10708904 -0.16789818 0.20788765 -0.24651527 0.28910065c-0.078617096 0.081213 -0.16132641 0.14392376 -0.22518635 0.19817543c-0.06385994 0.05425167 -0.08388615 0.07759571 -0.15797043 0.12733555c-0.07408428 0.049739838 -0.20918179 0.13053894 -0.28653526 0.17110443c-0.07735348 0.040567398 -0.21850967 0.08130264 -0.1775837 0.07229233c0.04092598 -0.009010315 0.28950787 -0.070028305 0.42313862 -0.1263485c0.13363075 -0.056322098 0.24826717 -0.11907387 0.3786459 -0.21157837c0.13037872 -0.092505455 0.28954315 -0.23345661 0.40362835 -0.3434515c0.1140852 -0.10999489 0.14727497 -0.16428566 0.2808838 -0.31651783c0.13360882 -0.15223217 0.37388515 -0.44212914 0.52076817 -0.5968733c0.14688206 -0.15474415 0.23609734 -0.22744274 0.360528 -0.3315916c0.1244297 -0.104148865 0.20657921 -0.18700218 0.38605118 -0.29330063c0.17947197 -0.10629845 0.53663826 -0.366045 0.69078064 -0.34449005c0.15414238 0.021554947 0.29518318 0.36172962 0.23407745 0.47382164c-0.06110573 0.11209202 -0.4857254 0.15349579 -0.60071373 0.19873142c-0.11498833 0.045236588 -0.08439064 0.003370285 -0.08921623 0.072683334z" fill-rule="evenodd"/><path fill="#ffffff" d="m18.456402 21.363525l0.08060646 -0.17391586l0.15029144 -0.35417175l0.20407677 -0.53401184l0.2215004 -0.7200508l0.17399597 -0.7209072l0.06632042 -0.36108017l0.051273346 -0.32655334l0.07369423 -0.65047455l0.038154602 -0.64434433l0.0015144348 -0.64048195l-0.019859314 -0.31422234l0.18856621 -0.12592697l0.35423088 -0.27692413l0.32758522 -0.29275894l0.3096428 -0.31096172l0.28417397 -0.32267284l0.2609768 -0.3411913l0.24089813 -0.35068417l0.22174454 -0.36119556l0.10349274 -0.18595123l0.10514641 -0.19816971l0.19342422 -0.40203667l0.17168617 -0.40923786l0.15203857 -0.41514587l0.13760185 -0.42054462l0.11648369 -0.4207573l0.09809494 -0.42056465l0.08483696 -0.4218397l0.0341568 -0.20930195l-0.050807953 0.21075344l-0.11593437 0.41607952l-0.1266613 0.4132614l-0.14684105 0.4138422l-0.16171646 0.40316486l-0.17765045 0.39983654l-0.1953125 0.3871355l-0.21607208 0.3788414l-0.112478256 0.1828165l-0.10767937 0.16442108l-0.21998024 0.31196213l-0.23213768 0.30145073l-0.24920082 0.28399754l-0.2665558 0.27479076l-0.2796631 0.2518654l-0.29529572 0.2404108l-0.3092575 0.21866798l-0.1611805 0.10362244l-0.025129318 -0.19164848l-0.052001953 -0.3829813l-0.032808304 -0.1888752l-0.06305504 -0.30338955l-0.14868546 -0.59282494l-0.18401337 -0.571434l-0.21752548 -0.54850006l-0.12588692 -0.2613592l0.0500679 -0.11026096l0.07755661 -0.2164936l0.056114197 -0.22201347l0.040449142 -0.21996021l0.037029266 -0.32843018l2.4223328E-4 -0.42592812l-0.016304016 -0.20384979l-0.024820328 -0.22344685l-0.07591438 -0.42220402l-0.09548378 -0.38926888l-0.10015869 -0.3437233l-0.05186653 -0.14880371l0.053703308 0.3337021l0.07060242 0.5934601l0.027124405 0.42717648l-0.0026741028 0.22041416l-0.0028438568 0.16797256l-0.032238007 0.33540154l-0.060129166 0.32520294l-0.09000778 0.31187248l-0.05866623 0.14946556l-0.08716774 -0.15084648l-0.1793747 -0.28505325l-0.094516754 -0.14264679l-0.122680664 -0.16815281l-0.25660706 -0.322587l-0.273592 -0.30119514l-0.28772545 -0.2777357l-0.30732346 -0.25835133l-0.3256607 -0.23117352l-0.3371315 -0.20747185l-0.35640812 -0.18278217l-0.1862936 -0.07628727l0.1715393 0.10256672l0.3202076 0.22890949l0.29808426 0.2516489l0.28294754 0.2725773l0.2564926 0.29555607l0.24184799 0.31188107l0.22094727 0.32705116l0.19881439 0.34797764l0.09173775 0.1777277l0.12941933 0.26222992l0.22279549 0.54905415l0.17886925 0.5726633l0.1418171 0.59460735l0.05173111 0.30532265l-0.1453495 -0.0061044693l-0.2812519 -0.028922081l-0.27342796 -0.053465843l-0.26585388 -0.0716486l-0.13049507 -0.04415226l-0.16514397 -0.062521935l-0.3224697 -0.14970589l-0.31510735 -0.1831522l-0.30939865 -0.2126112l-0.15070152 -0.117780685l0.1272831 0.14623356l0.2619648 0.27426815l0.27783012 0.2503729l0.29406166 0.22008991l0.15461922 0.09863758l0.14574623 0.08554745l0.30786324 0.15421677l0.32670212 0.124248505l0.35245323 0.09060955l0.1875019 0.03161049l0.020025253 0.20654964l0.014431 0.20068836l0.010450363 0.21978664l0.00969696 0.44159603l-0.011421204 0.44138336l-0.028018951 0.44276237l-0.04906845 0.44271278l-0.06752586 0.4427414l-0.08790016 0.43980026l-0.10314751 0.43539238l-0.061761856 0.21622467l-0.003610611 0.02263832l-0.005405426 0.02302742l-0.11541939 -0.02983284l-0.22581673 -0.08804703l-0.21484947 -0.11876297l-0.2023201 -0.14000702l-0.09280014 -0.08254242l-0.10869408 -0.10749245l-0.13973618 -0.18548584l-0.07784462 -0.13066483l-0.059215546 -0.14060402l-0.04932022 -0.14853477l-0.02178955 -0.1573143l-0.0047721863 -0.16515541l0.0036773682 -0.083250046l-0.020019531 0.0881958l-0.0245018 0.17255783l-9.7084045E-4 0.17113495l0.018213272 0.16814041l0.038269043 0.16577339l0.05381775 0.1637497l0.07429314 0.1549244l0.08431053 0.14708328l0.051649094 0.07106972l0.08808708 0.11441612l0.20035553 0.21108246l0.22661781 0.18458176l0.2461853 0.15164566l0.13163757 0.06008911l-0.103658676 0.29362488l-0.2363224 0.574667l-0.26701736 0.55070686l-0.30366325 0.52908325l-0.16162682 0.2566471z" fill-rule="evenodd"/><path fill="#ffffff" d="m18.476126 11.253955c-0.040851593 -0.056158066 -0.17373085 -0.12296963 -0.26667786 -0.22406197c-0.092947006 -0.10109234 -0.20515442 -0.24196625 -0.29100227 -0.38249207c-0.085847855 -0.14052486 -0.16473961 -0.2879448 -0.22408676 -0.46065998c-0.059345245 -0.17271614 -0.10878754 -0.4009962 -0.13199234 -0.57563496c-0.023204803 -0.17463875 -0.027801514 -0.30322647 -0.0072364807 -0.47219944c0.020565033 -0.16897202 0.06731987 -0.3755703 0.13062477 -0.5416355c0.063302994 -0.16606522 0.15182877 -0.31740284 0.24920464 -0.45475292c0.09737396 -0.13735008 0.2251358 -0.2651415 0.33504105 -0.3693471c0.10990715 -0.104206085 0.21660233 -0.18231726 0.32439613 -0.25588703c0.1077919 -0.073569775 0.2036438 -0.13144779 0.3223648 -0.18553114c0.11872101 -0.054083824 0.2450695 -0.100577354 0.38996315 -0.13896942c0.14489174 -0.03839159 0.30252838 -0.07618475 0.4793911 -0.09138107c0.17686081 -0.015196323 0.4626541 -0.008102894 0.5817795 2.0313263E-4c0.11912346 0.00830555 0.12866211 0.017795086 0.132967 0.04963255c0.0043029785 0.031837463 -0.08206177 0.09917259 -0.107141495 0.14139175c-0.02507782 0.04221964 -0.031147003 0.06548977 -0.043331146 0.111925125c-0.012184143 0.046435833 -0.022525787 0.07574415 -0.029773712 0.16668892c-0.007247925 0.09094429 -0.03066063 0.22089624 -0.013715744 0.37897873c0.016944885 0.15808249 0.06679726 0.3765006 0.115385056 0.5695157c0.04858589 0.19301414 0.12909889 0.39021778 0.17613602 0.58856964c0.047039032 0.19835186 0.083927155 0.4296732 0.10609245 0.6015425c0.022163391 0.17186928 0.033964157 0.29893398 0.026893616 0.42967415c-0.007068634 0.13074017 -0.029174805 0.23280048 -0.069309235 0.3547659c-0.04013443 0.12196541 -0.102703094 0.26637173 -0.17149734 0.37702942c-0.06879425 0.11065674 -0.14654922 0.2055006 -0.24126816 0.28691578c-0.09471893 0.08141518 -0.21816444 0.14973927 -0.32704163 0.20157433c-0.108875275 0.05183506 -0.2129364 0.09125519 -0.32621956 0.10943794c-0.11328125 0.018182755 -0.30493355 0.046236992 -0.35347176 -3.4046173E-4c-0.0485363 -0.046577454 0.038877487 -0.16632271 0.062253952 -0.27912426c0.023374557 -0.1128006 0.063467026 -0.23476887 0.07799721 -0.39768314c0.014530182 -0.16291428 0.01439476 -0.40238953 0.009180069 -0.5798044c-0.005214691 -0.17741394 -0.026569366 -0.33306503 -0.0404644 -0.48468304c-0.013895035 -0.151618 -0.036231995 -0.29094028 -0.042905807 -0.42502594c-0.006673813 -0.13408566 -0.0051116943 -0.2668743 0.002861023 -0.379488c0.007972717 -0.11261463 0.03096962 -0.21369171 0.04497528 -0.2961979c0.014005661 -0.08250618 0.01432991 -0.11322594 0.039060593 -0.19883919c0.024730682 -0.08561325 0.07619476 -0.23415089 0.109321594 -0.3148384c0.03312874 -0.08068752 0.11497688 -0.20244265 0.089445114 -0.16928577c-0.025529861 0.033156395 -0.17655563 0.23936749 -0.2426281 0.36822605c-0.06607056 0.12885857 -0.11347389 0.25045204 -0.15380287 0.40492344c-0.04032898 0.1544714 -0.07155228 0.36450005 -0.088171005 0.5219059c-0.016620636 0.15740585 -0.007129669 0.22026348 -0.011545181 0.42252922c-0.004415512 0.2022667 -0.0019931793 0.57836246 -0.014951706 0.79106903c-0.012960434 0.21270657 -0.03451729 0.3256035 -0.06280899 0.48517132c-0.02829361 0.15956783 -0.037916183 0.27570534 -0.10695267 0.47223568c-0.06903458 0.1965313 -0.17544174 0.62454605 -0.3072605 0.70694923c-0.13182068 0.08240318 -0.45837784 -0.08751202 -0.4836521 -0.21252918c-0.025274277 -0.12501812 0.27307892 -0.4291668 0.33200836 -0.5375767c0.058929443 -0.108410835 0.062417984 -0.056728363 0.021566391 -0.11288643z" fill-rule="evenodd"/><path fill="#ffffff" d="m22.76646 21.858267l0 0l0 0c0 -0.43019295 -0.17089462 -0.8427677 -0.4750862 -1.1469593c-0.3041935 -0.3041935 -0.71676826 -0.4750862 -1.1469612 -0.4750862l-21.149607 0c-1.4930498E-5 0 -2.7033966E-5 1.1444092E-5 -2.7033966E-5 2.670288E-5l2.7033966E-5 3.2440662l0 0c0 1.5258789E-5 1.2103468E-5 2.861023E-5 2.7033966E-5 2.861023E-5l21.14958 -2.861023E-5l0 0c0.89583206 0 1.6220474 -0.72621536 1.6220474 -1.6220474z" fill-rule="evenodd"/></g></svg>
